<?xml version="1.0" encoding="utf-8"?>
<!-- Generator: Adobe Illustrator 19.0.0, SVG Export Plug-In . SVG Version: 6.00 Build 0)  -->
<svg version="1.1" id="Layer_1" xmlns="http://www.w3.org/2000/svg" xmlns:xlink="http://www.w3.org/1999/xlink" x="0px" y="0px"
	 viewBox="0 0 756 419.7" style="enable-background:new 0 0 756 419.7;" xml:space="preserve">
<style type="text/css">
	.st0{fill:url(#XMLID_92_);}
	.st1{fill:url(#XMLID_93_);}
	.st2{fill:url(#XMLID_95_);}
	.st3{fill:url(#XMLID_97_);}
	.st4{fill:url(#XMLID_98_);}
	.st5{fill:#FFFFFF;}
	.st6{fill:#1371D6;}
	.st7{fill:#50BF41;}
</style>
<g id="XMLID_86_">
	<linearGradient id="XMLID_92_" gradientUnits="userSpaceOnUse" x1="226.4653" y1="152.3209" x2="549.5331" y2="152.3209">
		<stop  offset="0" style="stop-color:#1371D6"/>
		<stop  offset="0.9949" style="stop-color:#50BF41"/>
	</linearGradient>
	<path id="XMLID_91_" class="st0" d="M599.5,96.1c-94.9-11-189,2.3-278.6,31.5c-49.6-11.9-100.2-17.9-149.7-14.8
		c-13.1,0.8-13.2,21.3,0,20.5c37.1-2.3,74.9,0.7,112.5,7.5c-28.1,10.6-55.7,22.7-82.6,36c-11.8,5.9-1.4,23.6,10.4,17.7
		c35.7-17.7,72.6-33,110.2-45.6c9.7,2.4,19.4,5,29.1,7.9c-32.4,7.6-64.1,19.4-94.9,36.4c-11.6,6.4-1.2,24.1,10.4,17.7
		c40.3-22.2,82.2-35.1,125.1-40.8c30.8,11.1,60.6,24.1,88.8,38c11.8,5.9,22.2-11.8,10.4-17.7c-16.8-8.3-34.1-16.3-51.9-23.8
		c44.2-0.7,89,5.4,133.6,16.2c12.8,3.1,18.3-16.7,5.5-19.8c-61.7-14.9-123.7-21.1-184-13.9c-11.6-4.1-23.3-8-35.1-11.5
		c78.1-21.7,159.2-30.5,241.1-21.1C612.6,118.2,612.5,97.6,599.5,96.1z"/>
	<linearGradient id="XMLID_93_" gradientUnits="userSpaceOnUse" x1="226.4622" y1="29.7341" x2="549.543" y2="29.7341">
		<stop  offset="0" style="stop-color:#1371D6"/>
		<stop  offset="0.9949" style="stop-color:#50BF41"/>
	</linearGradient>
	<path id="XMLID_90_" class="st1" d="M327.5,59.5c16.4,0,29.7-13.3,29.7-29.7C357.3,13.3,344,0,327.5,0c-16.4,0-29.7,13.3-29.7,29.7
		C297.8,46.2,311.1,59.5,327.5,59.5z"/>
	<linearGradient id="XMLID_95_" gradientUnits="userSpaceOnUse" x1="226.4517" y1="41.5638" x2="549.5355" y2="41.5638">
		<stop  offset="0" style="stop-color:#1371D6"/>
		<stop  offset="0.9949" style="stop-color:#50BF41"/>
	</linearGradient>
	<path id="XMLID_89_" class="st2" d="M485.2,71.3c16.4,0,29.7-13.3,29.7-29.7c0-16.4-13.3-29.7-29.7-29.7
		c-16.4,0-29.7,13.3-29.7,29.7C455.5,58,468.8,71.3,485.2,71.3z"/>
	<linearGradient id="XMLID_97_" gradientUnits="userSpaceOnUse" x1="226.4661" y1="59.463" x2="549.5354" y2="59.463">
		<stop  offset="0" style="stop-color:#1371D6"/>
		<stop  offset="0.9949" style="stop-color:#50BF41"/>
	</linearGradient>
	<path id="XMLID_88_" class="st3" d="M406.4,89.2c16.4,0,29.7-13.3,29.7-29.7c0-16.4-13.3-29.7-29.7-29.7
		c-16.4,0-29.7,13.3-29.7,29.7C376.6,75.9,390,89.2,406.4,89.2z"/>
	<linearGradient id="XMLID_98_" gradientUnits="userSpaceOnUse" x1="226.4659" y1="71.2979" x2="549.5353" y2="71.2979">
		<stop  offset="0" style="stop-color:#1371D6"/>
		<stop  offset="0.9949" style="stop-color:#50BF41"/>
	</linearGradient>
	<circle id="XMLID_87_" class="st4" cx="248.7" cy="71.3" r="29.7"/>
</g>
<g id="XMLID_83_">
	<g id="XMLID_85_">
		<path id="XMLID_169_" class="st5" d="M1.8,389.9h4.3v20.3h12.7v3.9h-17V389.9z"/>
		<path id="XMLID_166_" class="st5" d="M31.4,389.1h4.5v4h-4.5V389.1z M31.6,395.8h4.2v18.3h-4.2V395.8z"/>
		<path id="XMLID_164_" class="st5" d="M48.4,411.7l1.9-2.8c2,1.5,4.1,2.2,6,2.2c1.8,0,2.8-0.8,2.8-2v-0.1c0-1.4-1.9-1.9-4.1-2.6
			c-2.7-0.8-5.7-1.9-5.7-5.4v-0.1c0-3.5,2.9-5.6,6.5-5.6c2.3,0,4.8,0.8,6.7,2.1l-1.7,3c-1.8-1.1-3.6-1.7-5.1-1.7
			c-1.6,0-2.6,0.8-2.6,1.8v0.1c0,1.4,2,1.9,4.1,2.6c2.7,0.8,5.7,2,5.7,5.3v0.1c0,3.8-3,5.7-6.8,5.7
			C53.5,414.4,50.6,413.5,48.4,411.7z"/>
		<path id="XMLID_162_" class="st5" d="M76.3,409v-9.6H74v-3.6h2.3v-5h4.2v5h4.9v3.6h-4.9v8.9c0,1.6,0.8,2.3,2.2,2.3
			c0.9,0,1.8-0.2,2.6-0.6v3.4c-1,0.6-2.2,0.9-3.8,0.9C78.5,414.4,76.3,413.1,76.3,409z"/>
		<path id="XMLID_159_" class="st5" d="M96.8,405L96.8,405c0-5.3,3.7-9.6,8.9-9.6c5.8,0,8.7,4.6,8.7,9.8c0,0.4,0,0.8-0.1,1.2h-13.4
			c0.4,3,2.6,4.6,5.2,4.6c2,0,3.5-0.8,4.9-2.2l2.4,2.2c-1.7,2.1-4.1,3.4-7.5,3.4C100.8,414.5,96.8,410.7,96.8,405z M110.3,403.7
			c-0.3-2.7-1.9-4.8-4.6-4.8c-2.6,0-4.4,2-4.7,4.8H110.3z"/>
		<path id="XMLID_157_" class="st5" d="M127.3,395.8h4.2v2.8c1.2-1.7,2.9-3.2,5.7-3.2c4.1,0,6.5,2.8,6.5,7v11.6h-4.2v-10.4
			c0-2.8-1.4-4.5-3.9-4.5c-2.4,0-4.1,1.7-4.1,4.5v10.3h-4.2V395.8z"/>
		<path id="XMLID_155_" class="st5" d="M176.6,388.9h4.2v25.2h-4.2V388.9z"/>
		<path id="XMLID_152_" class="st5" d="M193.8,405.1L193.8,405.1c0-5.3,4.1-9.6,9.7-9.6c5.6,0,9.7,4.3,9.7,9.5v0.1
			c0,5.2-4.1,9.5-9.8,9.5C197.9,414.5,193.8,410.3,193.8,405.1z M209.1,405.1L209.1,405.1c0-3.3-2.3-5.9-5.6-5.9
			c-3.4,0-5.5,2.6-5.5,5.8v0.1c0,3.2,2.3,5.8,5.6,5.8C207,410.9,209.1,408.2,209.1,405.1z"/>
		<path id="XMLID_150_" class="st5" d="M225.2,405.1L225.2,405.1c0-5.3,4-9.6,9.5-9.6c3.4,0,5.6,1.3,7.3,3.1l-2.6,2.8
			c-1.3-1.3-2.6-2.3-4.7-2.3c-3,0-5.3,2.6-5.3,5.8v0.1c0,3.2,2.2,5.8,5.5,5.8c2,0,3.4-0.9,4.7-2.2l2.5,2.5c-1.8,2-3.9,3.4-7.5,3.4
			C229.2,414.5,225.2,410.3,225.2,405.1z"/>
		<path id="XMLID_147_" class="st5" d="M253.3,408.8L253.3,408.8c0-4,3.1-5.9,7.5-5.9c2,0,3.5,0.3,4.9,0.8v-0.4c0-2.6-1.6-4-4.5-4
			c-2,0-3.6,0.4-5.2,1.1l-1.1-3.3c2-0.9,4-1.5,6.9-1.5c2.7,0,4.8,0.7,6,2c1.3,1.3,2,3.2,2,5.6v10.8h-4.1v-2.3
			c-1.2,1.5-3.1,2.7-5.9,2.7C256.4,414.5,253.3,412.5,253.3,408.8z M265.8,407.5v-1.2c-1.1-0.4-2.5-0.7-4.1-0.7
			c-2.7,0-4.3,1.1-4.3,3v0.1c0,1.8,1.6,2.8,3.6,2.8C263.7,411.4,265.8,409.8,265.8,407.5z"/>
		<path id="XMLID_145_" class="st5" d="M283.7,388.9h4.2v25.2h-4.2V388.9z"/>
		<path id="XMLID_143_" class="st5" d="M301.7,409.3h4.6v4.8h-4.6V409.3z"/>
		<path id="XMLID_141_" class="st5" d="M339.4,389.9h4.3v20.3h12.7v3.9h-17V389.9z"/>
		<path id="XMLID_138_" class="st5" d="M367.6,405L367.6,405c0-5.3,3.7-9.6,8.9-9.6c5.8,0,8.7,4.6,8.7,9.8c0,0.4,0,0.8-0.1,1.2
			h-13.4c0.5,3,2.6,4.6,5.3,4.6c2,0,3.5-0.8,4.9-2.2l2.5,2.2c-1.7,2.1-4.1,3.4-7.5,3.4C371.6,414.5,367.6,410.7,367.6,405z
			 M381.1,403.7c-0.3-2.7-1.9-4.8-4.6-4.8c-2.6,0-4.4,2-4.7,4.8H381.1z"/>
		<path id="XMLID_136_" class="st5" d="M395.5,395.8h4.5l4.9,13.4l4.9-13.4h4.4l-7.5,18.4H403L395.5,395.8z"/>
		<path id="XMLID_133_" class="st5" d="M424.4,405L424.4,405c0-5.3,3.7-9.6,8.9-9.6c5.8,0,8.7,4.6,8.7,9.8c0,0.4,0,0.8-0.1,1.2
			h-13.4c0.4,3,2.6,4.6,5.3,4.6c2,0,3.5-0.8,4.9-2.2l2.5,2.2c-1.7,2.1-4.1,3.4-7.5,3.4C428.4,414.5,424.4,410.7,424.4,405z
			 M437.9,403.7c-0.3-2.7-1.9-4.8-4.6-4.8c-2.6,0-4.4,2-4.7,4.8H437.9z"/>
		<path id="XMLID_131_" class="st5" d="M454.9,395.8h4.2v4.1c1.1-2.7,3.2-4.6,6.5-4.5v4.4h-0.2c-3.7,0-6.2,2.4-6.2,7.2v6.9h-4.2
			V395.8z"/>
		<path id="XMLID_128_" class="st5" d="M475.7,408.8L475.7,408.8c0-4,3.1-5.9,7.5-5.9c2,0,3.5,0.3,4.9,0.8v-0.4c0-2.6-1.6-4-4.5-4
			c-2,0-3.6,0.4-5.2,1.1l-1.1-3.3c2-0.9,4-1.5,6.9-1.5c2.7,0,4.8,0.7,6,2c1.3,1.3,2,3.2,2,5.6v10.8h-4.1v-2.3
			c-1.2,1.5-3.1,2.7-5.9,2.7C478.7,414.5,475.7,412.5,475.7,408.8z M488.2,407.5v-1.2c-1.1-0.4-2.5-0.7-4.1-0.7
			c-2.7,0-4.3,1.1-4.3,3v0.1c0,1.8,1.6,2.8,3.6,2.8C486.1,411.4,488.2,409.8,488.2,407.5z"/>
		<path id="XMLID_125_" class="st5" d="M505.8,417.5l1.6-3.1c2,1.2,4,1.9,6.5,1.9c3.7,0,5.8-1.9,5.8-5.6v-1.4
			c-1.5,2-3.4,3.4-6.4,3.4c-4.3,0-8.3-3.2-8.3-8.5V404c0-5.4,4-8.6,8.3-8.6c3.1,0,5,1.4,6.4,3.1v-2.7h4.2v14.5
			c0,3.1-0.8,5.4-2.3,6.9c-1.7,1.7-4.2,2.5-7.5,2.5C510.9,419.7,508.1,418.9,505.8,417.5z M519.6,404.1L519.6,404.1
			c0-3-2.4-5.1-5.4-5.1c-2.9,0-5.2,2-5.2,5v0.1c0,3,2.3,5,5.2,5C517.2,409.1,519.6,407.1,519.6,404.1z"/>
		<path id="XMLID_122_" class="st5" d="M536.6,405L536.6,405c0-5.3,3.7-9.6,8.9-9.6c5.8,0,8.7,4.6,8.7,9.8c0,0.4,0,0.8-0.1,1.2
			h-13.4c0.5,3,2.6,4.6,5.3,4.6c2,0,3.5-0.8,4.9-2.2l2.5,2.2c-1.7,2.1-4.1,3.4-7.5,3.4C540.7,414.5,536.6,410.7,536.6,405z
			 M550.1,403.7c-0.3-2.7-1.9-4.8-4.6-4.8c-2.6,0-4.4,2-4.7,4.8H550.1z"/>
		<path id="XMLID_119_" class="st5" d="M586.1,417.5l1.6-3.1c2,1.2,4,1.9,6.5,1.9c3.7,0,5.8-1.9,5.8-5.6v-1.4
			c-1.5,2-3.4,3.4-6.4,3.4c-4.3,0-8.3-3.2-8.3-8.5V404c0-5.4,4-8.6,8.3-8.6c3.1,0,5,1.4,6.4,3.1v-2.7h4.2v14.5
			c0,3.1-0.8,5.4-2.3,6.9c-1.7,1.7-4.2,2.5-7.5,2.5C591.2,419.7,588.4,418.9,586.1,417.5z M599.9,404.1L599.9,404.1
			c0-3-2.4-5.1-5.4-5.1c-2.9,0-5.2,2-5.2,5v0.1c0,3,2.3,5,5.2,5C597.5,409.1,599.9,407.1,599.9,404.1z"/>
		<path id="XMLID_117_" class="st5" d="M618.2,388.9h4.2v25.2h-4.2V388.9z"/>
		<path id="XMLID_114_" class="st5" d="M635.5,405.1L635.5,405.1c0-5.3,4.1-9.6,9.7-9.6c5.6,0,9.7,4.3,9.7,9.5v0.1
			c0,5.2-4.1,9.5-9.8,9.5C639.6,414.5,635.5,410.3,635.5,405.1z M650.7,405.1L650.7,405.1c0-3.3-2.3-5.9-5.6-5.9
			c-3.3,0-5.5,2.6-5.5,5.8v0.1c0,3.2,2.3,5.8,5.6,5.8C648.6,410.9,650.7,408.2,650.7,405.1z"/>
		<path id="XMLID_111_" class="st5" d="M672,411.3v2.8h-4.2v-25.2h4.2v10c1.4-1.9,3.2-3.4,6.2-3.4c4.3,0,8.5,3.4,8.5,9.5v0.1
			c0,6-4.1,9.5-8.5,9.5C675.2,414.5,673.3,413,672,411.3z M682.4,405L682.4,405c0-3.6-2.4-5.9-5.2-5.9c-2.8,0-5.3,2.3-5.3,5.8v0.1
			c0,3.5,2.5,5.8,5.3,5.8C680.1,410.9,682.4,408.6,682.4,405z"/>
		<path id="XMLID_108_" class="st5" d="M698.4,408.8L698.4,408.8c0-4,3.1-5.9,7.5-5.9c2,0,3.5,0.3,4.9,0.8v-0.4c0-2.6-1.6-4-4.5-4
			c-2,0-3.6,0.4-5.2,1.1l-1.1-3.3c2-0.9,4-1.5,6.9-1.5c2.7,0,4.8,0.7,6,2c1.3,1.3,2,3.2,2,5.6v10.8h-4.1v-2.3
			c-1.2,1.5-3.1,2.7-5.9,2.7C701.4,414.5,698.4,412.5,698.4,408.8z M710.9,407.5v-1.2c-1.1-0.4-2.5-0.7-4.1-0.7
			c-2.7,0-4.3,1.1-4.3,3v0.1c0,1.8,1.6,2.8,3.6,2.8C708.8,411.4,710.9,409.8,710.9,407.5z"/>
		<path id="XMLID_106_" class="st5" d="M728.8,388.9h4.2v25.2h-4.2V388.9z"/>
		<path id="XMLID_104_" class="st5" d="M746.8,409.3h4.6v4.8h-4.6V409.3z"/>
	</g>
	<g id="XMLID_84_">
		<path id="XMLID_99_" class="st6" d="M0,278.6h33c6.5,0,11.4,0.3,14.6,0.8c3.2,0.5,6.1,1.7,8.6,3.4c2.5,1.7,4.6,4,6.3,6.9
			c1.7,2.9,2.5,6.1,2.5,9.7c0,3.9-1,7.4-3.1,10.6c-2.1,3.2-4.9,5.7-8.5,7.3c5,1.5,8.9,4,11.6,7.5c2.7,3.5,4,7.7,4,12.4
			c0,3.8-0.9,7.4-2.6,11c-1.7,3.5-4.1,6.4-7.1,8.5c-3,2.1-6.8,3.4-11.2,3.9c-2.8,0.3-9.5,0.5-20.1,0.6H0V278.6z M16.7,292.3v19.1
			h10.9c6.5,0,10.5-0.1,12.1-0.3c2.9-0.3,5.1-1.3,6.7-3c1.6-1.6,2.4-3.8,2.4-6.5c0-2.5-0.7-4.6-2.1-6.2c-1.4-1.6-3.5-2.6-6.3-2.9
			c-1.7-0.2-6.4-0.3-14.2-0.3H16.7z M16.7,325.1v22.1h15.4c6,0,9.8-0.2,11.4-0.5c2.5-0.4,4.5-1.5,6.1-3.3c1.6-1.7,2.3-4.1,2.3-7
			c0-2.5-0.6-4.6-1.8-6.3c-1.2-1.7-2.9-3-5.2-3.8c-2.3-0.8-7.2-1.2-14.8-1.2H16.7z"/>
		<path id="XMLID_96_" class="st6" d="M117.7,342.1l15.8,2.6c-2,5.8-5.2,10.2-9.6,13.2c-4.4,3-9.8,4.5-16.4,4.5
			c-10.4,0-18.1-3.4-23.1-10.2c-3.9-5.4-5.9-12.3-5.9-20.6c0-9.9,2.6-17.7,7.8-23.3c5.2-5.6,11.7-8.4,19.7-8.4
			c8.9,0,15.9,2.9,21.1,8.8c5.1,5.9,7.6,14.9,7.4,27H94.7c0.1,4.7,1.4,8.3,3.8,10.9c2.4,2.6,5.5,3.9,9.1,3.9c2.5,0,4.6-0.7,6.3-2
			C115.6,347.3,116.9,345.1,117.7,342.1z M118.6,326.1c-0.1-4.6-1.3-8.1-3.6-10.4c-2.2-2.4-5-3.6-8.2-3.6c-3.5,0-6.3,1.3-8.6,3.8
			c-2.2,2.5-3.4,5.9-3.3,10.2H118.6z"/>
		<path id="XMLID_94_" class="st6" d="M147.8,361.1v-81.9h16.7v68h41.4v13.9H147.8z"/>
		<path id="XMLID_82_" class="st6" d="M214,330.4c0-5.2,1.3-10.3,3.9-15.3c2.6-4.9,6.3-8.7,11-11.3c4.8-2.6,10.1-3.9,15.9-3.9
			c9,0,16.5,2.9,22.2,8.8c5.8,5.9,8.7,13.3,8.7,22.3c0,9.1-2.9,16.5-8.8,22.5c-5.8,6-13.2,8.9-22,8.9c-5.5,0-10.7-1.2-15.7-3.7
			c-5-2.5-8.8-6.1-11.3-10.9C215.3,343.1,214,337.2,214,330.4z M230.2,331.2c0,5.9,1.4,10.5,4.2,13.6c2.8,3.2,6.3,4.7,10.4,4.7
			c4.1,0,7.6-1.6,10.4-4.7c2.8-3.1,4.2-7.7,4.2-13.7c0-5.9-1.4-10.4-4.2-13.5c-2.8-3.2-6.3-4.7-10.4-4.7c-4.1,0-7.6,1.6-10.4,4.7
			C231.6,320.7,230.2,325.3,230.2,331.2z"/>
		<path id="XMLID_80_" class="st6" d="M340.3,319l-15.6,2.8c-0.5-3.1-1.7-5.5-3.6-7c-1.9-1.6-4.3-2.4-7.2-2.4
			c-3.9,0-7.1,1.4-9.4,4.1c-2.3,2.7-3.5,7.3-3.5,13.6c0,7.1,1.2,12.1,3.6,15c2.4,2.9,5.6,4.4,9.6,4.4c3,0,5.5-0.9,7.4-2.6
			c1.9-1.7,3.3-4.7,4.1-8.8l15.5,2.6c-1.6,7.1-4.7,12.5-9.3,16.2c-4.6,3.6-10.7,5.5-18.4,5.5c-8.7,0-15.7-2.8-20.9-8.3
			c-5.2-5.5-7.8-13.1-7.8-22.9c0-9.9,2.6-17.6,7.8-23.1c5.2-5.5,12.3-8.3,21.2-8.3c7.3,0,13.1,1.6,17.4,4.7
			C335.3,307.8,338.4,312.6,340.3,319z"/>
		<path id="XMLID_77_" class="st6" d="M364.1,319.6l-14.4-2.6c1.6-5.8,4.4-10.1,8.3-12.8c3.9-2.8,9.8-4.2,17.6-4.2
			c7.1,0,12.3,0.8,15.8,2.5c3.4,1.7,5.9,3.8,7.3,6.4c1.4,2.6,2.1,7.3,2.1,14.2l-0.2,18.5c0,5.3,0.3,9.1,0.8,11.6
			c0.5,2.5,1.5,5.2,2.8,8h-15.7c-0.4-1-0.9-2.6-1.5-4.7c-0.3-0.9-0.4-1.6-0.6-1.9c-2.7,2.6-5.6,4.6-8.7,5.9c-3.1,1.3-6.4,2-9.9,2
			c-6.2,0-11-1.7-14.6-5c-3.5-3.3-5.3-7.6-5.3-12.7c0-3.4,0.8-6.4,2.4-9c1.6-2.7,3.9-4.7,6.8-6.1c2.9-1.4,7.1-2.6,12.6-3.7
			c7.4-1.4,12.5-2.7,15.4-3.9v-1.6c0-3-0.8-5.2-2.3-6.5c-1.5-1.3-4.3-1.9-8.5-1.9c-2.8,0-5,0.6-6.6,1.7
			C366.3,314.8,365.1,316.8,364.1,319.6z M385.3,332.4c-2,0.7-5.2,1.5-9.6,2.4c-4.4,0.9-7.3,1.9-8.6,2.8c-2.1,1.5-3.1,3.3-3.1,5.6
			c0,2.2,0.8,4.1,2.5,5.7c1.7,1.6,3.8,2.4,6.3,2.4c2.9,0,5.6-0.9,8.2-2.8c1.9-1.4,3.2-3.2,3.8-5.2c0.4-1.4,0.6-3.9,0.6-7.7V332.4z"
			/>
		<path id="XMLID_75_" class="st6" d="M416.4,361.1v-82.5h15.8v82.5H416.4z"/>
		<path id="XMLID_73_" class="st7" d="M487.7,328.7V319l35,0v30.6c-5.4,4.3-10.9,7.5-16.6,9.7c-5.7,2.2-11.6,3.2-17.6,3.2
			c-8.1,0-15.5-1.7-22.1-5.2c-6.6-3.5-11.6-8.5-15-15.1c-3.4-6.6-5.1-13.9-5.1-22c0-8,1.7-15.5,5-22.5c3.4-7,8.2-12.1,14.5-15.5
			c6.3-3.4,13.6-5.1,21.8-5.1c6,0,11.4,1,16.2,2.9c4.8,1.9,8.6,4.6,11.3,8.1c2.7,3.5,4.8,8,6.3,13.5l-9.9,2.7
			c-1.2-4.2-2.8-7.5-4.6-9.9c-1.8-2.4-4.5-4.3-7.9-5.8c-3.4-1.4-7.2-2.2-11.4-2.2c-5,0-9.3,0.8-12.9,2.3c-3.6,1.5-6.6,3.5-8.8,6
			c-2.2,2.5-4,5.2-5.2,8.2c-2.1,5.1-3.2,10.6-3.2,16.6c0,7.4,1.3,13.5,3.8,18.5c2.5,5,6.2,8.6,11.1,11c4.8,2.4,10,3.6,15.4,3.6
			c4.7,0,9.3-0.9,13.8-2.7c4.5-1.8,7.9-3.8,10.2-5.8v-15.4H487.7z"/>
		<path id="XMLID_71_" class="st7" d="M537.3,361.1v-59.8h9.1v9.1c2.3-4.2,4.5-7,6.4-8.4c2-1.4,4.1-2,6.5-2c3.4,0,6.9,1.1,10.4,3.3
			l-3.5,9.4c-2.5-1.5-5-2.2-7.4-2.2c-2.2,0-4.2,0.7-6,2c-1.8,1.3-3,3.2-3.8,5.5c-1.1,3.6-1.7,7.6-1.7,11.8v31.3H537.3z"/>
		<path id="XMLID_68_" class="st7" d="M572.1,331.2c0-11.1,3.1-19.3,9.2-24.6c5.1-4.4,11.4-6.6,18.8-6.6c8.2,0,14.9,2.7,20.2,8.1
			c5.2,5.4,7.8,12.8,7.8,22.3c0,7.7-1.1,13.7-3.5,18.2c-2.3,4.4-5.7,7.8-10.1,10.3c-4.4,2.4-9.2,3.7-14.4,3.7
			c-8.4,0-15.1-2.7-20.3-8.1C574.7,349,572.1,341.3,572.1,331.2z M582.5,331.2c0,7.7,1.7,13.4,5,17.2c3.3,3.8,7.5,5.7,12.6,5.7
			c5,0,9.2-1.9,12.6-5.7c3.3-3.8,5-9.7,5-17.5c0-7.4-1.7-13-5-16.8c-3.4-3.8-7.5-5.7-12.5-5.7c-5.1,0-9.3,1.9-12.6,5.7
			C584.2,317.8,582.5,323.6,582.5,331.2z"/>
		<path id="XMLID_66_" class="st7" d="M679.2,361.1v-8.8c-4.7,6.8-11,10.1-19,10.1c-3.5,0-6.8-0.7-9.9-2c-3.1-1.4-5.3-3-6.8-5.1
			c-1.5-2-2.5-4.5-3.1-7.5c-0.4-2-0.6-5.1-0.6-9.5v-37h10.1v33.2c0,5.3,0.2,8.9,0.6,10.7c0.6,2.7,2,4.8,4,6.3
			c2.1,1.5,4.6,2.3,7.7,2.3c3,0,5.9-0.8,8.6-2.3c2.7-1.6,4.5-3.7,5.7-6.4c1.1-2.7,1.7-6.6,1.7-11.7v-32h10.1v59.8H679.2z"/>
		<path id="XMLID_63_" class="st7" d="M704.1,384v-82.7h9.2v7.8c2.2-3,4.6-5.3,7.4-6.8c2.7-1.5,6.1-2.3,10-2.3
			c5.1,0,9.6,1.3,13.5,3.9c3.9,2.6,6.9,6.3,8.8,11.1c2,4.8,3,10,3,15.7c0,6.1-1.1,11.6-3.3,16.5c-2.2,4.9-5.4,8.7-9.6,11.3
			c-4.2,2.6-8.6,3.9-13.2,3.9c-3.4,0-6.4-0.7-9.1-2.1c-2.7-1.4-4.9-3.2-6.6-5.4V384H704.1z M713.3,331.5c0,7.7,1.6,13.4,4.7,17.1
			c3.1,3.7,6.9,5.5,11.3,5.5c4.5,0,8.4-1.9,11.6-5.7c3.2-3.8,4.8-9.7,4.8-17.7c0-7.6-1.6-13.3-4.7-17.1c-3.1-3.8-6.9-5.7-11.2-5.7
			c-4.3,0-8.1,2-11.5,6.1C715,318,713.3,323.9,713.3,331.5z"/>
	</g>
</g>
</svg>
