<?xml version="1.0" encoding="utf-8"?>
<!-- Generator: Adobe Illustrator 16.0.0, SVG Export Plug-In . SVG Version: 6.00 Build 0)  -->
<!DOCTYPE svg PUBLIC "-//W3C//DTD SVG 1.1//EN" "http://www.w3.org/Graphics/SVG/1.1/DTD/svg11.dtd">
<svg version="1.1" id="Layer_1" xmlns="http://www.w3.org/2000/svg" xmlns:xlink="http://www.w3.org/1999/xlink" x="0px" y="0px"
	 width="693.051px" height="393.529px" viewBox="0 0 693.051 393.529" enable-background="new 0 0 693.051 393.529"
	 xml:space="preserve">
<g>
	<g id="XMLID_151_">
		<linearGradient id="XMLID_2_" gradientUnits="userSpaceOnUse" x1="207.5967" y1="139.6309" x2="503.7506" y2="139.6309">
			<stop  offset="0" style="stop-color:#1371D6"/>
			<stop  offset="0.9949" style="stop-color:#50BF41"/>
		</linearGradient>
		<path id="XMLID_156_" fill="url(#XMLID_2_)" d="M549.6,88.12c-87.014-10.054-173.27,2.115-255.431,28.854
			c-45.442-10.903-91.846-16.399-137.247-13.579c-12.029,0.75-12.117,19.573,0,18.821c34.003-2.115,68.698,0.641,103.118,6.86
			c-25.733,9.741-51.031,20.768-75.735,32.996c-10.854,5.373-1.332,21.61,9.498,16.25c32.759-16.214,66.536-30.285,101.036-41.768
			c8.922,2.214,17.809,4.582,26.631,7.199c-29.658,6.941-58.753,17.801-86.971,33.394c-10.6,5.857-1.117,22.111,9.498,16.244
			c36.906-20.389,75.367-32.17,114.648-37.376c28.219,10.196,55.563,22.064,81.378,34.875c10.815,5.359,20.36-10.863,9.498-16.252
			c-15.389-7.634-31.298-14.927-47.562-21.785c40.496-0.596,81.567,4.954,122.465,14.812c11.771,2.838,16.791-15.306,5.006-18.147
			c-56.516-13.617-113.355-19.323-168.682-12.704c-10.623-3.771-21.354-7.293-32.176-10.556
			c71.594-19.888,145.969-27.99,221.027-19.32C561.602,108.328,561.508,89.5,549.6,88.12z"/>
		<linearGradient id="XMLID_3_" gradientUnits="userSpaceOnUse" x1="207.5986" y1="27.2559" x2="503.7516" y2="27.2559">
			<stop  offset="0" style="stop-color:#1371D6"/>
			<stop  offset="0.9949" style="stop-color:#50BF41"/>
		</linearGradient>
		<circle id="XMLID_155_" fill="url(#XMLID_3_)" cx="300.256" cy="27.256" r="27.256"/>
		<linearGradient id="XMLID_4_" gradientUnits="userSpaceOnUse" x1="207.5947" y1="38.1011" x2="503.7503" y2="38.1011">
			<stop  offset="0" style="stop-color:#1371D6"/>
			<stop  offset="0.9949" style="stop-color:#50BF41"/>
		</linearGradient>
		<path id="XMLID_154_" fill="url(#XMLID_4_)" d="M444.774,65.355c15.052,0,27.256-12.197,27.256-27.252
			s-12.204-27.257-27.256-27.257c-15.053,0-27.256,12.202-27.256,27.257S429.721,65.355,444.774,65.355z"/>
		<linearGradient id="XMLID_5_" gradientUnits="userSpaceOnUse" x1="207.5967" y1="54.5127" x2="503.7523" y2="54.5127">
			<stop  offset="0" style="stop-color:#1371D6"/>
			<stop  offset="0.9949" style="stop-color:#50BF41"/>
		</linearGradient>
		<circle id="XMLID_153_" fill="url(#XMLID_5_)" cx="372.514" cy="54.513" r="27.256"/>
		<linearGradient id="XMLID_6_" gradientUnits="userSpaceOnUse" x1="207.5972" y1="65.3584" x2="503.7369" y2="65.3584">
			<stop  offset="0" style="stop-color:#1371D6"/>
			<stop  offset="0.9949" style="stop-color:#50BF41"/>
		</linearGradient>
		<path id="XMLID_152_" fill="url(#XMLID_6_)" d="M227.995,92.613c15.055,0,27.255-12.202,27.255-27.257
			c0-15.048-12.2-27.252-27.255-27.252c-15.052,0-27.254,12.204-27.254,27.252C200.741,80.411,212.943,92.613,227.995,92.613z"/>
	</g>
	<g id="XMLID_149_">
		<path fill="#1371D6" d="M0,255.352h30.247c5.99,0,10.454,0.256,13.396,0.752c2.94,0.498,5.573,1.539,7.894,3.123
			c2.321,1.58,4.258,3.691,5.808,6.321c1.547,2.636,2.326,5.587,2.326,8.853c0,3.549-0.956,6.793-2.867,9.756
			c-1.909,2.961-4.5,5.18-7.769,6.661c4.61,1.344,8.156,3.629,10.636,6.865c2.477,3.231,3.714,7.04,3.714,11.407
			c0,3.439-0.8,6.785-2.401,10.039c-1.599,3.246-3.785,5.854-6.553,7.793c-2.772,1.945-6.188,3.142-10.248,3.592
			c-2.545,0.273-8.687,0.439-18.426,0.516H0V255.352z M15.277,267.947v17.505h10.016c5.95,0,9.649-0.09,11.095-0.265
			c2.616-0.308,4.672-1.211,6.169-2.707c1.495-1.494,2.245-3.463,2.245-5.914c0-2.337-0.646-4.238-1.938-5.701
			c-1.289-1.461-3.208-2.352-5.753-2.654c-1.514-0.17-5.869-0.264-13.059-0.264H15.277z M15.277,298.043v20.234h14.144
			c5.507,0,8.999-0.15,10.475-0.463c2.273-0.416,4.123-1.42,5.555-3.02c1.426-1.604,2.141-3.746,2.141-6.424
			c0-2.276-0.551-4.201-1.653-5.782c-1.103-1.589-2.692-2.739-4.774-3.464c-2.08-0.719-6.598-1.082-13.55-1.082H15.277z"/>
		<path fill="#1371D6" d="M107.928,313.58l14.454,2.427c-1.859,5.3-4.792,9.335-8.797,12.103c-4.013,2.768-9.027,4.154-15.053,4.154
			c-9.529,0-16.581-3.113-21.158-9.34c-3.615-4.991-5.42-11.289-5.42-18.896c0-9.084,2.373-16.195,7.123-21.338
			c4.748-5.148,10.754-7.722,18.014-7.722c8.157,0,14.589,2.692,19.304,8.081c4.717,5.385,6.969,13.635,6.763,24.754H86.819
			c0.104,4.296,1.273,7.646,3.508,10.035s5.024,3.591,8.362,3.591c2.271,0,4.183-0.624,5.729-1.864
			C105.964,318.325,107.137,316.328,107.928,313.58z M108.755,298.922c-0.102-4.196-1.185-7.391-3.25-9.576
			c-2.065-2.186-4.577-3.278-7.534-3.278c-3.17,0-5.784,1.154-7.852,3.464c-2.061,2.299-3.078,5.432-3.045,9.391H108.755z"/>
		<path fill="#1371D6" d="M135.494,331.029v-75.053h15.277v62.301h37.99v12.752H135.494z"/>
		<path fill="#1371D6" d="M196.196,302.844c0-4.816,1.183-9.48,3.561-13.984c2.37-4.514,5.736-7.949,10.089-10.324
			s9.216-3.567,14.582-3.567c8.294,0,15.091,2.692,20.388,8.081c5.301,5.385,7.951,12.188,7.951,20.41
			c0,8.299-2.675,15.169-8.027,20.624c-5.354,5.456-12.088,8.181-20.205,8.181c-5.026,0-9.817-1.136-14.376-3.406
			c-4.563-2.271-8.031-5.602-10.401-9.988C197.379,314.483,196.196,309.137,196.196,302.844z M211.06,303.621
			c0,5.431,1.29,9.6,3.87,12.484c2.583,2.892,5.766,4.34,9.55,4.34c3.785,0,6.958-1.448,9.527-4.34
			c2.56-2.885,3.842-7.082,3.842-12.59c0-5.374-1.282-9.5-3.842-12.391c-2.569-2.891-5.742-4.334-9.527-4.334
			c-3.785,0-6.967,1.443-9.55,4.334C212.349,294.016,211.06,298.18,211.06,303.621z"/>
		<path fill="#1371D6" d="M311.915,292.416L297.619,295c-0.479-2.857-1.575-5.006-3.281-6.453c-1.696-1.448-3.905-2.168-6.626-2.168
			c-3.617,0-6.499,1.245-8.646,3.743c-2.15,2.493-3.224,6.667-3.224,12.515c0,6.5,1.088,11.1,3.276,13.781
			c2.183,2.684,5.114,4.027,8.797,4.027c2.756,0,5.008-0.785,6.762-2.348c1.754-1.566,2.994-4.258,3.719-8.08l14.242,2.427
			c-1.479,6.538-4.318,11.478-8.514,14.813c-4.199,3.34-9.824,5.006-16.879,5.006c-8.021,0-14.411-2.527-19.175-7.59
			c-4.762-5.053-7.151-12.055-7.151-21.002c0-9.051,2.392-16.1,7.175-21.139s11.254-7.565,19.41-7.565
			c6.676,0,11.98,1.442,15.922,4.315C307.368,282.159,310.194,286.531,311.915,292.416z"/>
		<path fill="#1371D6" d="M333.749,292.932l-13.162-2.375c1.48-5.293,4.026-9.221,7.641-11.766
			c3.613-2.546,8.977-3.823,16.105-3.823c6.465,0,11.287,0.767,14.451,2.3c3.162,1.533,5.395,3.473,6.684,5.834
			c1.289,2.359,1.934,6.685,1.934,12.982l-0.152,16.928c0,4.821,0.23,8.369,0.695,10.66c0.465,2.289,1.332,4.74,2.605,7.357h-14.346
			c-0.381-0.966-0.844-2.391-1.396-4.287c-0.238-0.861-0.41-1.43-0.518-1.703c-2.473,2.408-5.129,4.215-7.943,5.417
			c-2.83,1.206-5.834,1.808-9.035,1.808c-5.646,0-10.092-1.528-13.342-4.594c-3.252-3.062-4.881-6.932-4.881-11.611
			c0-3.099,0.741-5.861,2.22-8.284c1.481-2.427,3.554-4.286,6.224-5.573c2.668-1.292,6.51-2.418,11.533-3.388
			c6.777-1.269,11.473-2.456,14.092-3.558v-1.443c0-2.791-0.688-4.773-2.063-5.967c-1.377-1.182-3.982-1.778-7.797-1.778
			c-2.582,0-4.592,0.511-6.041,1.523C335.811,288.604,334.643,290.387,333.749,292.932z M353.157,304.699
			c-1.857,0.625-4.803,1.362-8.824,2.224c-4.028,0.856-6.664,1.703-7.9,2.526c-1.891,1.344-2.84,3.047-2.84,5.109
			c0,2.035,0.758,3.791,2.273,5.266c1.514,1.482,3.438,2.22,5.779,2.22c2.615,0,5.109-0.86,7.485-2.583
			c1.753-1.307,2.907-2.905,3.454-4.798c0.381-1.239,0.572-3.596,0.572-7.073V304.699z"/>
		<path fill="#1371D6" d="M381.704,331.029v-75.678h14.503v75.678H381.704z"/>
		<path fill="#50BF41" d="M447.051,301.35v-8.881l32.053-0.053v28.08c-4.926,3.923-9.993,6.875-15.227,8.854
			c-5.23,1.977-10.6,2.971-16.105,2.971c-7.432,0-14.188-1.594-20.258-4.779c-6.076-3.179-10.658-7.787-13.754-13.805
			c-3.102-6.023-4.646-12.752-4.646-20.184c0-7.362,1.535-14.242,4.619-20.619c3.078-6.388,7.512-11.123,13.293-14.223
			c5.779-3.094,12.436-4.646,19.969-4.646c5.475,0,10.423,0.891,14.844,2.66c4.42,1.773,7.887,4.238,10.4,7.408
			c2.512,3.16,4.424,7.296,5.734,12.387l-9.037,2.479c-1.136-3.855-2.551-6.889-4.234-9.088c-1.686-2.2-4.096-3.965-7.223-5.285
			c-3.137-1.324-6.609-1.992-10.428-1.992c-4.582,0-8.533,0.695-11.873,2.092c-3.34,1.396-6.03,3.223-8.076,5.498
			c-2.051,2.271-3.639,4.764-4.771,7.484c-1.931,4.68-2.898,9.752-2.898,15.225c0,6.748,1.166,12.393,3.487,16.93
			c2.325,4.547,5.704,7.915,10.142,10.119c4.438,2.205,9.154,3.303,14.148,3.303c4.332,0,8.564-0.832,12.691-2.502
			c4.129-1.67,7.26-3.449,9.39-5.342v-14.09H447.051z"/>
		<path fill="#50BF41" d="M492.573,331.029v-54.822h8.361v8.309c2.138-3.889,4.105-6.444,5.914-7.688
			c1.807-1.239,3.793-1.859,5.961-1.859c3.127,0,6.316,1.003,9.547,2.999l-3.197,8.621c-2.271-1.344-4.543-2.021-6.813-2.021
			c-2.034,0-3.856,0.62-5.474,1.836c-1.619,1.221-2.768,2.919-3.459,5.086c-1.031,3.302-1.547,6.917-1.547,10.835v28.705H492.573z"
			/>
		<path fill="#50BF41" d="M524.419,303.621c0-10.154,2.825-17.672,8.47-22.56c4.717-4.06,10.455-6.094,17.24-6.094
			c7.531,0,13.697,2.475,18.48,7.409c4.778,4.939,7.172,11.762,7.172,20.467c0,7.06-1.059,12.605-3.18,16.645
			c-2.109,4.041-5.194,7.184-9.234,9.426c-4.041,2.232-8.46,3.35-13.238,3.35c-7.674,0-13.882-2.461-18.613-7.381
			C526.786,319.967,524.419,312.875,524.419,303.621z M533.971,303.621c0,7.016,1.529,12.271,4.595,15.764
			c3.056,3.496,6.913,5.242,11.563,5.242c4.607,0,8.445-1.755,11.506-5.271c3.066-3.506,4.6-8.856,4.6-16.048
			c0-6.78-1.543-11.914-4.623-15.406c-3.08-3.496-6.908-5.242-11.482-5.242c-4.65,0-8.508,1.736-11.563,5.215
			C535.5,291.352,533.971,296.6,533.971,303.621z"/>
		<path fill="#50BF41" d="M622.594,331.029v-8.059c-4.269,6.199-10.068,9.293-17.393,9.293c-3.236,0-6.256-0.62-9.061-1.855
			c-2.801-1.238-4.888-2.795-6.24-4.674c-1.363-1.873-2.318-4.173-2.873-6.889c-0.378-1.826-0.563-4.717-0.563-8.668v-33.971h9.287
			v30.403c0,4.854,0.194,8.124,0.572,9.808c0.582,2.447,1.822,4.363,3.715,5.758c1.893,1.392,4.234,2.092,7.021,2.092
			s5.398-0.719,7.84-2.143c2.45-1.43,4.172-3.374,5.194-5.834c1.013-2.461,1.519-6.037,1.519-10.712v-29.372h9.297v54.822H622.594z"
			/>
		<path fill="#50BF41" d="M645.464,352.031v-75.824h8.46v7.125c1.996-2.781,4.248-4.883,6.766-6.273
			c2.508-1.391,5.555-2.091,9.135-2.091c4.676,0,8.807,1.206,12.387,3.614c3.582,2.408,6.279,5.811,8.105,10.196
			c1.822,4.386,2.734,9.198,2.734,14.426c0,5.611-1.008,10.655-3.018,15.149c-2.016,4.485-4.936,7.93-8.777,10.324
			c-3.842,2.394-7.867,3.586-12.107,3.586c-3.094,0-5.871-0.652-8.336-1.959c-2.461-1.311-4.477-2.961-6.061-4.959v26.686H645.464z
			 M653.877,303.924c0,7.059,1.424,12.271,4.281,15.641c2.857,3.379,6.311,5.063,10.375,5.063c4.131,0,7.664-1.746,10.607-5.242
			c2.943-3.492,4.41-8.904,4.41-16.229c0-6.988-1.43-12.216-4.311-15.697c-2.871-3.473-6.303-5.21-10.295-5.21
			c-3.961,0-7.461,1.851-10.508,5.55C655.401,291.498,653.877,296.873,653.877,303.924z"/>
	</g>
	<g>
		<path fill="#FFFFFF" d="M3.615,358.9h4.899v23.662h14.783v4.461H3.615V358.9z"/>
		<path fill="#FFFFFF" d="M32.014,357.936h5.264v4.623h-5.264V357.936z M32.215,365.813h4.899v21.211h-4.899V365.813z"/>
		<path fill="#FFFFFF" d="M54.708,387.42c-1.526,0-3.07-0.27-4.639-0.809c-1.568-0.543-3.023-1.338-4.357-2.398l2.169-3.297
			c1.15,0.855,2.321,1.508,3.513,1.943c1.19,0.445,2.337,0.662,3.435,0.662c1.043,0,1.853-0.203,2.432-0.615
			c0.577-0.416,0.861-0.969,0.861-1.664v-0.08c0-0.402-0.125-0.748-0.381-1.047c-0.253-0.293-0.603-0.543-1.041-0.756
			c-0.442-0.213-0.954-0.418-1.528-0.602c-0.577-0.186-1.176-0.373-1.786-0.563c-0.783-0.213-1.563-0.469-2.354-0.762
			c-0.788-0.295-1.5-0.678-2.126-1.141c-0.631-0.465-1.145-1.051-1.545-1.742c-0.402-0.695-0.605-1.551-0.605-2.568v-0.08
			c0-0.984,0.194-1.883,0.584-2.688c0.386-0.795,0.922-1.486,1.604-2.045c0.687-0.557,1.488-0.982,2.413-1.277
			c0.92-0.293,1.907-0.443,2.952-0.443c1.337,0,2.692,0.217,4.058,0.648c1.365,0.43,2.609,1.031,3.737,1.787l-1.93,3.469
			c-1.015-0.615-2.051-1.104-3.094-1.467c-1.048-0.359-2.009-0.539-2.891-0.539c-0.937,0-1.668,0.199-2.188,0.596
			c-0.523,0.406-0.785,0.918-0.785,1.523v0.086c0,0.369,0.135,0.699,0.399,0.979c0.27,0.279,0.625,0.535,1.067,0.762
			c0.44,0.227,0.949,0.445,1.526,0.645c0.577,0.197,1.171,0.396,1.789,0.58c0.776,0.242,1.552,0.521,2.33,0.838
			c0.776,0.322,1.479,0.719,2.11,1.184c0.626,0.469,1.14,1.041,1.544,1.703c0.4,0.672,0.601,1.486,0.601,2.451v0.074
			c0,1.127-0.201,2.102-0.601,2.93c-0.404,0.822-0.958,1.514-1.665,2.059c-0.715,0.549-1.55,0.965-2.513,1.238
			C56.839,387.279,55.808,387.42,54.708,387.42z"/>
		<path fill="#FFFFFF" d="M78.688,387.379c-0.882,0-1.703-0.1-2.458-0.318c-0.757-0.217-1.413-0.566-1.966-1.041
			c-0.554-0.482-0.975-1.121-1.275-1.91c-0.298-0.791-0.445-1.779-0.445-2.953V369.99h-2.692v-4.178h2.692v-5.824h4.899v5.824h5.704
			v4.178h-5.704v10.4c0,0.936,0.227,1.617,0.686,2.033c0.452,0.412,1.091,0.615,1.923,0.615c1.045,0,2.048-0.236,3.014-0.719v3.975
			c-0.615,0.35-1.268,0.625-1.968,0.809C80.403,387.289,79.597,387.379,78.688,387.379z"/>
		<path fill="#FFFFFF" d="M101.744,387.502c-1.523,0-2.952-0.266-4.275-0.801c-1.325-0.539-2.477-1.287-3.456-2.252
			s-1.746-2.119-2.311-3.473c-0.563-1.354-0.842-2.848-0.842-4.48v-0.08c0-1.523,0.253-2.963,0.762-4.297
			c0.509-1.344,1.228-2.508,2.153-3.516c0.92-1.008,2.011-1.793,3.271-2.369c1.261-0.578,2.652-0.861,4.178-0.861
			c1.685,0,3.166,0.303,4.44,0.918c1.273,0.619,2.33,1.447,3.175,2.494c0.839,1.045,1.476,2.256,1.907,3.637
			c0.426,1.377,0.644,2.83,0.644,4.354c0,0.217-0.01,0.436-0.024,0.662c-0.017,0.227-0.036,0.463-0.062,0.709H95.718
			c0.265,1.736,0.958,3.066,2.072,3.994c1.107,0.922,2.456,1.381,4.034,1.381c1.206,0,2.25-0.207,3.137-0.633
			c0.882-0.436,1.753-1.064,2.609-1.893l2.851,2.525c-1.018,1.211-2.231,2.172-3.636,2.896
			C105.38,387.137,103.7,387.502,101.744,387.502z M106.567,374.93c-0.081-0.775-0.256-1.504-0.523-2.186
			c-0.27-0.691-0.627-1.277-1.083-1.773c-0.461-0.492-1.003-0.891-1.63-1.184c-0.632-0.293-1.344-0.439-2.15-0.439
			c-1.498,0-2.735,0.516-3.712,1.541c-0.984,1.033-1.573,2.381-1.791,4.041H106.567z"/>
		<path fill="#FFFFFF" d="M120.305,365.813h4.899v3.326c0.348-0.516,0.729-0.994,1.143-1.438c0.414-0.445,0.892-0.848,1.441-1.197
			s1.152-0.629,1.805-0.828c0.651-0.209,1.394-0.303,2.219-0.303c2.403,0,4.26,0.738,5.571,2.205
			c1.304,1.477,1.964,3.453,1.964,5.947v13.498h-4.902v-12.027c0-1.656-0.393-2.934-1.176-3.828
			c-0.781-0.893-1.893-1.338-3.324-1.338c-1.407,0-2.548,0.463-3.423,1.381c-0.878,0.918-1.318,2.215-1.318,3.865v11.947h-4.899
			V365.813z"/>
		<path fill="#FFFFFF" d="M165.576,357.699h4.899v29.324h-4.899V357.699z"/>
		<path fill="#FFFFFF" d="M190.876,387.502c-1.602,0-3.097-0.289-4.476-0.867c-1.382-0.572-2.571-1.354-3.574-2.346
			c-1.006-0.994-1.786-2.158-2.354-3.492c-0.561-1.34-0.84-2.758-0.84-4.258v-0.086c0-1.523,0.289-2.951,0.859-4.295
			c0.58-1.34,1.37-2.508,2.375-3.516s2.193-1.803,3.574-2.389c1.377-0.588,2.884-0.881,4.519-0.881s3.142,0.283,4.519,0.861
			c1.377,0.576,2.571,1.361,3.577,2.369c1,1.008,1.789,2.172,2.347,3.498c0.563,1.324,0.847,2.748,0.847,4.271v0.08
			c0,1.506-0.291,2.92-0.866,4.258c-0.579,1.344-1.367,2.514-2.37,3.521c-1.005,1.002-2.205,1.797-3.591,2.385
			C194.025,387.213,192.513,387.502,190.876,387.502z M190.959,383.285c0.986,0,1.869-0.18,2.659-0.549
			c0.783-0.35,1.452-0.842,2.016-1.457c0.553-0.619,0.979-1.334,1.275-2.148c0.293-0.822,0.435-1.684,0.435-2.592v-0.086
			c0-0.936-0.158-1.816-0.478-2.648c-0.317-0.828-0.765-1.553-1.334-2.172c-0.577-0.611-1.253-1.104-2.037-1.463
			c-0.786-0.359-1.656-0.543-2.614-0.543s-1.831,0.184-2.614,0.543c-0.79,0.359-1.462,0.842-2.018,1.449
			c-0.561,0.6-0.986,1.314-1.28,2.146c-0.291,0.828-0.438,1.699-0.438,2.607v0.08c0,0.938,0.161,1.816,0.48,2.637
			c0.322,0.818,0.764,1.537,1.337,2.166c0.57,0.629,1.249,1.131,2.037,1.48C189.171,383.105,190.032,383.285,190.959,383.285z"/>
		<path fill="#FFFFFF" d="M221.048,387.502c-1.583,0-3.04-0.289-4.381-0.867c-1.336-0.572-2.503-1.354-3.487-2.346
			c-0.987-0.994-1.753-2.158-2.307-3.492c-0.556-1.34-0.833-2.758-0.833-4.258v-0.086c0-1.494,0.277-2.924,0.833-4.277
			c0.554-1.348,1.32-2.525,2.307-3.533c0.984-1.008,2.157-1.803,3.508-2.389c1.354-0.588,2.815-0.881,4.4-0.881
			c2.008,0,3.674,0.332,4.999,1.002c1.327,0.668,2.484,1.553,3.478,2.65l-3.014,3.256c-0.747-0.777-1.544-1.42-2.389-1.912
			c-0.839-0.492-1.885-0.742-3.113-0.742c-0.883,0-1.706,0.184-2.453,0.543c-0.75,0.359-1.394,0.842-1.928,1.449
			c-0.535,0.6-0.954,1.314-1.266,2.146c-0.303,0.828-0.457,1.699-0.457,2.607v0.08c0,0.938,0.153,1.826,0.457,2.654
			c0.312,0.828,0.748,1.553,1.306,2.172c0.563,0.615,1.233,1.107,2.008,1.457c0.778,0.369,1.633,0.549,2.571,0.549
			c1.155,0,2.167-0.246,3.035-0.748c0.868-0.49,1.694-1.125,2.468-1.906l2.934,2.891c-1.041,1.184-2.236,2.139-3.572,2.877
			C224.809,387.137,223.113,387.502,221.048,387.502z"/>
		<path fill="#FFFFFF" d="M251.134,387.023v-2.611c-0.724,0.855-1.649,1.58-2.771,2.166c-1.128,0.588-2.493,0.885-4.097,0.885
			c-1.022,0-1.985-0.141-2.894-0.42c-0.913-0.285-1.71-0.701-2.392-1.25c-0.684-0.543-1.232-1.23-1.646-2.049
			c-0.414-0.813-0.622-1.764-0.622-2.828v-0.082c0-1.178,0.215-2.203,0.641-3.074c0.43-0.871,1.029-1.59,1.789-2.168
			c0.764-0.576,1.672-1.008,2.732-1.287c1.058-0.277,2.203-0.42,3.438-0.42c1.285,0,2.373,0.08,3.271,0.24
			c0.894,0.162,1.758,0.379,2.59,0.645v-0.402c0-1.471-0.449-2.598-1.349-3.373c-0.894-0.777-2.186-1.164-3.872-1.164
			c-1.204,0-2.278,0.113-3.215,0.359c-0.935,0.242-1.893,0.563-2.851,0.965l-1.327-3.898c1.178-0.535,2.382-0.965,3.614-1.287
			c1.232-0.316,2.716-0.477,4.462-0.477c3.158,0,5.5,0.779,7.026,2.346c1.528,1.566,2.29,3.771,2.29,6.609v12.576H251.134z
			 M251.252,378.146c-0.615-0.246-1.346-0.443-2.188-0.605c-0.847-0.16-1.736-0.24-2.67-0.24c-1.528,0-2.718,0.289-3.575,0.879
			c-0.856,0.592-1.287,1.396-1.287,2.408v0.086c0,1.018,0.396,1.793,1.183,2.328c0.792,0.539,1.762,0.805,2.917,0.805
			c0.802,0,1.544-0.105,2.228-0.322c0.682-0.209,1.28-0.512,1.789-0.904c0.506-0.383,0.903-0.855,1.183-1.404
			c0.284-0.549,0.421-1.154,0.421-1.826V378.146z"/>
		<path fill="#FFFFFF" d="M266.04,357.699h4.895v29.324h-4.895V357.699z"/>
		<path fill="#FFFFFF" d="M280.936,381.516h5.344v5.508h-5.344V381.516z"/>
		<path fill="#FFFFFF" d="M312.713,358.9h4.902v23.662h14.779v4.461h-19.682V358.9z"/>
		<path fill="#FFFFFF" d="M350.747,387.502c-1.523,0-2.947-0.266-4.271-0.801c-1.329-0.539-2.481-1.287-3.456-2.252
			c-0.979-0.965-1.748-2.119-2.314-3.473c-0.561-1.354-0.84-2.848-0.84-4.48v-0.08c0-1.523,0.254-2.963,0.762-4.297
			c0.51-1.344,1.225-2.508,2.154-3.516c0.92-1.008,2.01-1.793,3.269-2.369c1.259-0.578,2.649-0.861,4.178-0.861
			c1.687,0,3.163,0.303,4.438,0.918c1.271,0.619,2.334,1.447,3.174,2.494c0.845,1.045,1.48,2.256,1.906,3.637
			c0.432,1.377,0.645,2.83,0.645,4.354c0,0.217-0.01,0.436-0.02,0.662c-0.016,0.227-0.035,0.463-0.061,0.709h-15.586
			c0.266,1.736,0.959,3.066,2.07,3.994c1.109,0.922,2.458,1.381,4.035,1.381c1.207,0,2.25-0.207,3.137-0.633
			c0.881-0.436,1.754-1.064,2.605-1.893l2.855,2.525c-1.018,1.211-2.23,2.172-3.639,2.896
			C354.387,387.137,352.708,387.502,350.747,387.502z M355.569,374.93c-0.074-0.775-0.254-1.504-0.521-2.186
			c-0.266-0.691-0.627-1.277-1.08-1.773c-0.461-0.492-1.002-0.891-1.629-1.184c-0.632-0.293-1.349-0.439-2.15-0.439
			c-1.498,0-2.74,0.516-3.712,1.541c-0.983,1.033-1.577,2.381-1.79,4.041H355.569z"/>
		<path fill="#FFFFFF" d="M367.301,365.813h5.219l5.71,15.586l5.741-15.586h5.098l-8.674,21.371h-4.379L367.301,365.813z"/>
		<path fill="#FFFFFF" d="M406.95,387.502c-1.529,0-2.955-0.266-4.28-0.801c-1.322-0.539-2.474-1.287-3.454-2.252
			c-0.979-0.965-1.746-2.119-2.309-3.473s-0.848-2.848-0.848-4.48v-0.08c0-1.523,0.258-2.963,0.768-4.297
			c0.506-1.344,1.223-2.508,2.15-3.516c0.92-1.008,2.01-1.793,3.271-2.369c1.258-0.578,2.652-0.861,4.178-0.861
			c1.684,0,3.162,0.303,4.439,0.918c1.271,0.619,2.33,1.447,3.17,2.494c0.848,1.045,1.482,2.256,1.912,3.637
			c0.426,1.377,0.641,2.83,0.641,4.354c0,0.217-0.004,0.436-0.021,0.662c-0.014,0.227-0.035,0.463-0.061,0.709H400.92
			c0.266,1.736,0.959,3.066,2.073,3.994c1.106,0.922,2.456,1.381,4.036,1.381c1.203,0,2.246-0.207,3.131-0.633
			c0.885-0.436,1.756-1.064,2.615-1.893l2.848,2.525c-1.015,1.211-2.229,2.172-3.636,2.896
			C410.583,387.137,408.903,387.502,406.95,387.502z M411.77,374.93c-0.08-0.775-0.258-1.504-0.523-2.186
			c-0.27-0.691-0.627-1.277-1.086-1.773c-0.455-0.492-0.998-0.891-1.625-1.184c-0.633-0.293-1.344-0.439-2.152-0.439
			c-1.498,0-2.734,0.516-3.714,1.541c-0.979,1.033-1.571,2.381-1.788,4.041H411.77z"/>
		<path fill="#FFFFFF" d="M425.507,365.813h4.899v4.779c0.67-1.604,1.617-2.891,2.854-3.855c1.227-0.967,2.781-1.41,4.654-1.326
			v5.143h-0.279c-1.066,0-2.051,0.172-2.933,0.521c-0.88,0.346-1.646,0.865-2.286,1.566c-0.643,0.695-1.143,1.57-1.486,2.631
			c-0.346,1.059-0.523,2.279-0.523,3.676v8.076h-4.899V365.813z"/>
		<path fill="#FFFFFF" d="M459.088,387.023v-2.611c-0.727,0.855-1.65,1.58-2.775,2.166c-1.124,0.588-2.488,0.885-4.093,0.885
			c-1.021,0-1.987-0.141-2.897-0.42c-0.908-0.285-1.703-0.701-2.387-1.25c-0.682-0.543-1.23-1.23-1.65-2.049
			c-0.416-0.813-0.614-1.764-0.614-2.828v-0.082c0-1.178,0.208-2.203,0.639-3.074c0.429-0.871,1.026-1.59,1.788-2.168
			c0.764-0.576,1.676-1.008,2.729-1.287c1.057-0.277,2.201-0.42,3.434-0.42c1.29,0,2.381,0.08,3.279,0.24
			c0.895,0.162,1.758,0.379,2.586,0.645v-0.402c0-1.471-0.445-2.598-1.342-3.373c-0.898-0.777-2.188-1.164-3.879-1.164
			c-1.202,0-2.279,0.113-3.213,0.359c-0.934,0.242-1.888,0.563-2.848,0.965l-1.33-3.898c1.178-0.535,2.383-0.965,3.615-1.287
			c1.23-0.316,2.721-0.477,4.461-0.477c3.154,0,5.502,0.779,7.029,2.346c1.525,1.566,2.291,3.771,2.291,6.609v12.576H459.088z
			 M459.206,378.146c-0.615-0.246-1.346-0.443-2.188-0.605c-0.846-0.16-1.736-0.24-2.672-0.24c-1.525,0-2.721,0.289-3.574,0.879
			c-0.855,0.592-1.289,1.396-1.289,2.408v0.086c0,1.018,0.4,1.793,1.188,2.328c0.793,0.539,1.763,0.805,2.914,0.805
			c0.803,0,1.545-0.105,2.229-0.322c0.682-0.209,1.275-0.512,1.787-0.904c0.506-0.383,0.9-0.855,1.188-1.404
			c0.281-0.549,0.418-1.154,0.418-1.826V378.146z"/>
		<path fill="#FFFFFF" d="M483.143,393.529c-3.529,0-6.689-0.838-9.48-2.504l1.813-3.646c1.125,0.695,2.303,1.248,3.533,1.65
			c1.23,0.396,2.569,0.605,4.012,0.605c2.172,0,3.833-0.559,4.988-1.656c1.154-1.107,1.727-2.734,1.727-4.887v-1.656
			c-0.885,1.154-1.916,2.086-3.095,2.811c-1.179,0.729-2.64,1.084-4.376,1.084c-1.268,0-2.465-0.219-3.615-0.682
			c-1.154-0.455-2.176-1.107-3.075-1.945c-0.894-0.846-1.613-1.887-2.147-3.113c-0.535-1.234-0.801-2.625-0.801-4.178v-0.08
			c0-1.557,0.266-2.957,0.801-4.197c0.534-1.248,1.254-2.289,2.147-3.131c0.899-0.842,1.931-1.496,3.095-1.949
			c1.164-0.455,2.36-0.682,3.596-0.682c1.793,0,3.273,0.35,4.434,1.064c1.168,0.705,2.162,1.557,2.994,2.551v-3.176h4.863v16.867
			c0,3.535-0.898,6.203-2.688,7.996c-0.975,0.965-2.186,1.684-3.643,2.148C486.768,393.293,485.075,393.529,483.143,393.529z
			 M483.551,381.236c0.828,0,1.627-0.146,2.385-0.42c0.762-0.285,1.428-0.688,1.986-1.207c0.568-0.52,1.012-1.141,1.354-1.85
			c0.33-0.711,0.496-1.496,0.496-2.348v-0.08c0-0.885-0.166-1.68-0.496-2.389c-0.342-0.711-0.785-1.324-1.354-1.85
			c-0.559-0.525-1.225-0.924-1.986-1.207c-0.758-0.275-1.557-0.426-2.385-0.426c-0.861,0-1.652,0.15-2.375,0.426
			c-0.721,0.283-1.363,0.682-1.912,1.188c-0.545,0.512-0.975,1.121-1.277,1.826c-0.313,0.715-0.469,1.51-0.469,2.389v0.082
			c0,0.883,0.161,1.678,0.488,2.389c0.316,0.709,0.746,1.33,1.286,1.85c0.53,0.52,1.163,0.922,1.907,1.207
			C481.932,381.09,482.717,381.236,483.551,381.236z"/>
		<path fill="#FFFFFF" d="M514.352,387.502c-1.52,0-2.949-0.266-4.273-0.801c-1.32-0.539-2.475-1.287-3.453-2.252
			c-0.98-0.965-1.751-2.119-2.314-3.473c-0.559-1.354-0.842-2.848-0.842-4.48v-0.08c0-1.523,0.256-2.963,0.767-4.297
			c0.501-1.344,1.221-2.508,2.147-3.516c0.924-1.008,2.016-1.793,3.274-2.369c1.259-0.578,2.649-0.861,4.178-0.861
			c1.685,0,3.165,0.303,4.442,0.918c1.268,0.619,2.328,1.447,3.17,2.494c0.842,1.045,1.477,2.256,1.907,3.637
			c0.426,1.377,0.644,2.83,0.644,4.354c0,0.217-0.01,0.436-0.02,0.662c-0.014,0.227-0.037,0.463-0.061,0.709h-15.586
			c0.266,1.736,0.957,3.066,2.072,3.994c1.107,0.922,2.451,1.381,4.037,1.381c1.196,0,2.246-0.207,3.131-0.633
			c0.885-0.436,1.756-1.064,2.607-1.893l2.854,2.525c-1.018,1.211-2.229,2.172-3.635,2.896
			C517.995,387.137,516.31,387.502,514.352,387.502z M519.177,374.93c-0.085-0.775-0.255-1.504-0.521-2.186
			c-0.266-0.691-0.625-1.277-1.084-1.773c-0.459-0.492-0.998-0.891-1.632-1.184c-0.624-0.293-1.344-0.439-2.144-0.439
			c-1.5,0-2.738,0.516-3.719,1.541c-0.979,1.033-1.57,2.381-1.788,4.041H519.177z"/>
		<path fill="#FFFFFF" d="M558.422,393.529c-3.533,0-6.693-0.838-9.477-2.504l1.803-3.646c1.131,0.695,2.305,1.248,3.535,1.65
			c1.234,0.396,2.568,0.605,4.016,0.605c2.172,0,3.833-0.559,4.988-1.656c1.148-1.107,1.727-2.734,1.727-4.887v-1.656
			c-0.885,1.154-1.912,2.086-3.095,2.811c-1.183,0.729-2.64,1.084-4.382,1.084c-1.258,0-2.465-0.219-3.613-0.682
			c-1.154-0.455-2.178-1.107-3.076-1.945c-0.895-0.846-1.608-1.887-2.148-3.113c-0.533-1.234-0.799-2.625-0.799-4.178v-0.08
			c0-1.557,0.266-2.957,0.799-4.197c0.54-1.248,1.254-2.289,2.148-3.131c0.898-0.842,1.93-1.496,3.1-1.949
			c1.168-0.455,2.355-0.682,3.59-0.682c1.799,0,3.275,0.35,4.443,1.064c1.159,0.705,2.158,1.557,2.986,2.551v-3.176h4.863v16.867
			c0,3.535-0.895,6.203-2.688,7.996c-0.965,0.965-2.182,1.684-3.639,2.148C562.042,393.293,560.348,393.529,558.422,393.529z
			 M558.825,381.236c0.834,0,1.629-0.146,2.391-0.42c0.766-0.285,1.428-0.688,1.982-1.207c0.572-0.52,1.012-1.141,1.352-1.85
			c0.336-0.711,0.498-1.496,0.498-2.348v-0.08c0-0.885-0.162-1.68-0.498-2.389c-0.34-0.711-0.779-1.324-1.352-1.85
			c-0.555-0.525-1.217-0.924-1.982-1.207c-0.762-0.275-1.557-0.426-2.391-0.426c-0.861,0-1.646,0.15-2.375,0.426
			c-0.714,0.283-1.354,0.682-1.906,1.188c-0.549,0.512-0.975,1.121-1.282,1.826c-0.303,0.715-0.459,1.51-0.459,2.389v0.082
			c0,0.883,0.156,1.678,0.478,2.389c0.322,0.709,0.748,1.33,1.287,1.85s1.174,0.922,1.906,1.207
			C557.208,381.09,557.993,381.236,558.825,381.236z"/>
		<path fill="#FFFFFF" d="M580.192,357.699h4.906v29.324h-4.906V357.699z"/>
		<path fill="#FFFFFF" d="M605.495,387.502c-1.6,0-3.094-0.289-4.477-0.867c-1.381-0.572-2.564-1.354-3.571-2.346
			c-1.008-0.994-1.788-2.158-2.352-3.492c-0.563-1.34-0.843-2.758-0.843-4.258v-0.086c0-1.523,0.289-2.951,0.861-4.295
			c0.578-1.34,1.367-2.508,2.371-3.516c1.008-1.008,2.199-1.803,3.576-2.389c1.377-0.588,2.881-0.881,4.52-0.881
			c1.631,0,3.141,0.283,4.521,0.861c1.373,0.576,2.57,1.361,3.572,2.369c1.008,1.008,1.789,2.172,2.342,3.498
			c0.573,1.324,0.853,2.748,0.853,4.271v0.08c0,1.506-0.284,2.92-0.866,4.258c-0.576,1.344-1.367,2.514-2.37,3.521
			c-1.003,1.002-2.204,1.797-3.596,2.385C608.645,387.213,607.131,387.502,605.495,387.502z M605.581,383.285
			c0.982,0,1.863-0.18,2.658-0.549c0.785-0.35,1.453-0.842,2.016-1.457c0.559-0.619,0.984-1.334,1.272-2.148
			c0.298-0.822,0.44-1.684,0.44-2.592v-0.086c0-0.936-0.161-1.816-0.482-2.648c-0.313-0.828-0.762-1.553-1.334-2.172
			c-0.578-0.611-1.25-1.104-2.035-1.463s-1.656-0.543-2.611-0.543c-0.965,0-1.836,0.184-2.617,0.543
			c-0.789,0.359-1.461,0.842-2.02,1.449c-0.559,0.6-0.984,1.314-1.277,2.146c-0.284,0.828-0.436,1.699-0.436,2.607v0.08
			c0,0.938,0.16,1.816,0.482,2.637c0.313,0.818,0.758,1.537,1.334,2.166c0.568,0.629,1.25,1.131,2.035,1.48
			C603.792,383.105,604.653,383.285,605.581,383.285z"/>
		<path fill="#FFFFFF" d="M637.904,387.463c-1.741,0-3.185-0.373-4.333-1.125c-1.146-0.754-2.092-1.623-2.844-2.607v3.293h-4.902
			v-29.324h4.902l-0.039,11.648c0.771-1.127,1.736-2.072,2.891-2.83c1.15-0.766,2.584-1.145,4.297-1.145
			c1.258,0,2.484,0.236,3.657,0.719s2.229,1.193,3.155,2.129c0.918,0.938,1.666,2.092,2.225,3.455
			c0.566,1.367,0.842,2.932,0.842,4.697v0.08c0,1.77-0.275,3.34-0.818,4.703c-0.549,1.363-1.283,2.518-2.2,3.453
			c-0.923,0.938-1.978,1.646-3.17,2.131C640.383,387.223,639.153,387.463,637.904,387.463z M636.797,383.242
			c0.822,0,1.607-0.156,2.346-0.477c0.729-0.326,1.377-0.768,1.922-1.35c0.558-0.572,0.992-1.287,1.314-2.123
			c0.322-0.848,0.473-1.793,0.473-2.84v-0.08c0-1.018-0.15-1.945-0.473-2.791c-0.322-0.838-0.757-1.557-1.314-2.148
			c-0.545-0.592-1.193-1.045-1.922-1.367c-0.738-0.316-1.523-0.482-2.346-0.482c-0.838,0-1.623,0.166-2.375,0.482
			c-0.748,0.322-1.406,0.785-1.969,1.391c-0.568,0.596-1.013,1.316-1.344,2.148c-0.341,0.828-0.502,1.75-0.502,2.768v0.08
			c0,1.021,0.161,1.949,0.502,2.791c0.331,0.848,0.775,1.563,1.344,2.154c0.563,0.582,1.221,1.041,1.969,1.367
			C635.174,383.086,635.959,383.242,636.797,383.242z"/>
		<path fill="#FFFFFF" d="M669.735,387.023v-2.611c-0.729,0.855-1.65,1.58-2.777,2.166c-1.125,0.588-2.492,0.885-4.092,0.885
			c-1.021,0-1.986-0.141-2.895-0.42c-0.914-0.285-1.709-0.701-2.395-1.25c-0.682-0.543-1.23-1.23-1.646-2.049
			c-0.412-0.813-0.615-1.764-0.615-2.828v-0.082c0-1.178,0.209-2.203,0.639-3.074s1.027-1.59,1.783-2.168
			c0.768-0.576,1.686-1.008,2.734-1.287c1.061-0.277,2.201-0.42,3.436-0.42c1.287,0,2.385,0.08,3.273,0.24
			c0.9,0.162,1.76,0.379,2.594,0.645v-0.402c0-1.471-0.449-2.598-1.344-3.373c-0.898-0.777-2.195-1.164-3.881-1.164
			c-1.201,0-2.279,0.113-3.211,0.359c-0.941,0.242-1.889,0.563-2.854,0.965l-1.324-3.898c1.172-0.535,2.385-0.965,3.613-1.287
			c1.23-0.316,2.717-0.477,4.457-0.477c3.16,0,5.508,0.779,7.031,2.346c1.527,1.566,2.289,3.771,2.289,6.609v12.576H669.735z
			 M669.85,378.146c-0.615-0.246-1.344-0.443-2.188-0.605c-0.842-0.16-1.736-0.24-2.668-0.24c-1.533,0-2.725,0.289-3.576,0.879
			c-0.852,0.592-1.287,1.396-1.287,2.408v0.086c0,1.018,0.393,1.793,1.184,2.328c0.795,0.539,1.76,0.805,2.914,0.805
			c0.805,0,1.547-0.105,2.229-0.322c0.686-0.209,1.281-0.512,1.787-0.904c0.508-0.383,0.904-0.855,1.184-1.404
			c0.289-0.549,0.422-1.154,0.422-1.826V378.146z"/>
		<path fill="#FFFFFF" d="M684.639,357.699h4.902v29.324h-4.902V357.699z"/>
	</g>
</g>
</svg>
