<?xml version="1.0" encoding="utf-8"?>
<!-- Generator: Adobe Illustrator 16.0.0, SVG Export Plug-In . SVG Version: 6.00 Build 0)  -->
<!DOCTYPE svg PUBLIC "-//W3C//DTD SVG 1.1//EN" "http://www.w3.org/Graphics/SVG/1.1/DTD/svg11.dtd">
<svg version="1.1" id="Layer_1" xmlns="http://www.w3.org/2000/svg" xmlns:xlink="http://www.w3.org/1999/xlink" x="0px" y="0px"
	 width="745.188px" height="98.852px" viewBox="0 0 745.188 98.852" enable-background="new 0 0 745.188 98.852"
	 xml:space="preserve">
<g>
	<g id="XMLID_97_">
		<linearGradient id="XMLID_3_" gradientUnits="userSpaceOnUse" x1="15.1396" y1="69.0215" x2="192.9045" y2="65.3562">
			<stop  offset="0" style="stop-color:#1371D6"/>
			<stop  offset="0.9949" style="stop-color:#50BF41"/>
		</linearGradient>
		<path id="XMLID_102_" fill="url(#XMLID_3_)" d="M192.373,42.19c-41.662-4.81-82.969,1.016-122.309,13.82
			c-21.765-5.22-43.989-7.854-65.728-6.502c-5.76,0.359-5.802,9.37,0,9.011c16.28-1.009,32.893,0.306,49.38,3.286
			c-12.323,4.668-24.436,9.949-36.264,15.801c-5.196,2.576-0.644,10.352,4.546,7.783c15.687-7.766,31.856-14.502,48.379-20
			c4.271,1.059,8.532,2.191,12.754,3.447c-14.201,3.322-28.136,8.52-41.645,15.988c-5.08,2.807-0.534,10.588,4.546,7.783
			c17.671-9.764,36.095-15.41,54.9-17.9c13.515,4.879,26.608,10.561,38.974,16.697c5.177,2.568,9.749-5.203,4.542-7.781
			c-7.366-3.656-14.985-7.15-22.771-10.434c19.391-0.283,39.058,2.377,58.646,7.096c5.627,1.355,8.033-7.33,2.396-8.693
			c-27.061-6.521-54.281-9.254-80.783-6.078c-5.08-1.807-10.216-3.5-15.406-5.057c34.282-9.526,69.898-13.405,105.841-9.25
			C198.126,51.868,198.07,42.851,192.373,42.19z"/>
		<linearGradient id="XMLID_4_" gradientUnits="userSpaceOnUse" x1="14.0088" y1="14.2656" x2="191.7751" y2="10.6003">
			<stop  offset="0" style="stop-color:#1371D6"/>
			<stop  offset="0.9949" style="stop-color:#50BF41"/>
		</linearGradient>
		<path id="XMLID_101_" fill="url(#XMLID_4_)" d="M72.971,26.098c7.208,0,13.052-5.838,13.052-13.048
			C86.023,5.844,80.179,0,72.971,0C65.764,0,59.92,5.844,59.92,13.05C59.92,20.26,65.764,26.098,72.971,26.098z"/>
		<linearGradient id="XMLID_5_" gradientUnits="userSpaceOnUse" x1="14.1479" y1="20.8828" x2="191.9109" y2="17.2176">
			<stop  offset="0" style="stop-color:#1371D6"/>
			<stop  offset="0.9949" style="stop-color:#50BF41"/>
		</linearGradient>
		<path id="XMLID_100_" fill="url(#XMLID_5_)" d="M142.179,31.295c7.205,0,13.048-5.843,13.048-13.051
			c0-7.21-5.844-13.053-13.048-13.053c-7.21,0-13.054,5.842-13.054,13.053C129.125,25.453,134.969,31.295,142.179,31.295z"/>
		<linearGradient id="XMLID_6_" gradientUnits="userSpaceOnUse" x1="14.291" y1="28.0225" x2="192.0607" y2="24.3571">
			<stop  offset="0" style="stop-color:#1371D6"/>
			<stop  offset="0.9949" style="stop-color:#50BF41"/>
		</linearGradient>
		<path id="XMLID_99_" fill="url(#XMLID_6_)" d="M107.574,39.148c7.207,0,13.052-5.838,13.052-13.05
			c0-7.207-5.845-13.048-13.052-13.048c-7.208,0-13.052,5.841-13.052,13.048C94.522,33.311,100.366,39.148,107.574,39.148z"/>
		<linearGradient id="XMLID_7_" gradientUnits="userSpaceOnUse" x1="14.376" y1="31.791" x2="192.0991" y2="28.1266">
			<stop  offset="0" style="stop-color:#1371D6"/>
			<stop  offset="0.9949" style="stop-color:#50BF41"/>
		</linearGradient>
		<path id="XMLID_98_" fill="url(#XMLID_7_)" d="M38.372,44.348c7.208,0,13.045-5.842,13.045-13.053
			c0-7.206-5.838-13.051-13.045-13.051c-7.214,0-13.051,5.845-13.051,13.051C25.32,38.506,31.158,44.348,38.372,44.348z"/>
	</g>
	<g id="XMLID_93_">
		<g id="XMLID_94_">
			<g id="XMLID_96_">
				<path fill="#7A7A7A" d="M250.854,77.352h2.781v13.316h8.331v2.537h-11.112V77.352z"/>
				<path fill="#7A7A7A" d="M270.249,76.813h2.946v2.6h-2.946V76.813z M270.365,81.246h2.739v11.959h-2.739V81.246z"/>
				<path fill="#7A7A7A" d="M281.373,91.645l1.221-1.854c1.311,0.967,2.697,1.467,3.914,1.467c1.179,0,1.859-0.5,1.859-1.291v-0.043
					c0-0.93-1.27-1.25-2.671-1.676c-1.771-0.5-3.74-1.225-3.74-3.51v-0.047c0-2.266,1.882-3.646,4.261-3.646
					c1.497,0,3.125,0.52,4.397,1.359l-1.094,1.947c-1.153-0.703-2.376-1.135-3.371-1.135c-1.068,0-1.677,0.5-1.677,1.182v0.043
					c0,0.883,1.292,1.244,2.694,1.695c1.745,0.549,3.717,1.34,3.717,3.492v0.045c0,2.516-1.946,3.76-4.44,3.76
					C284.741,93.434,282.863,92.82,281.373,91.645z"/>
				<path fill="#7A7A7A" d="M299.687,89.898v-6.295h-1.517v-2.357h1.517v-3.285h2.739v3.285h3.219v2.357h-3.219v5.869
					c0,1.061,0.541,1.494,1.473,1.494c0.609,0,1.156-0.135,1.7-0.406v2.238c-0.687,0.385-1.424,0.611-2.47,0.611
					C301.111,93.41,299.687,92.529,299.687,89.898z"/>
				<path fill="#7A7A7A" d="M313.091,87.275v-0.049c0-3.422,2.421-6.23,5.845-6.23c3.804,0,5.727,2.992,5.727,6.434
					c0,0.25-0.02,0.5-0.045,0.771h-8.785c0.292,1.945,1.675,3.035,3.439,3.035c1.34,0,2.29-0.5,3.242-1.426l1.608,1.426
					c-1.133,1.363-2.697,2.246-4.895,2.246C315.759,93.482,313.091,90.967,313.091,87.275z M321.946,86.389
					c-0.185-1.766-1.226-3.146-3.037-3.146c-1.67,0-2.85,1.291-3.099,3.146H321.946z"/>
				<path fill="#7A7A7A" d="M333.082,81.246h2.739v1.834c0.771-1.107,1.878-2.084,3.74-2.084c2.697,0,4.261,1.814,4.261,4.58v7.629
					h-2.746v-6.797c0-1.855-0.928-2.916-2.558-2.916c-1.583,0-2.697,1.104-2.697,2.965v6.748h-2.739V81.246z"/>
				<path fill="#7A7A7A" d="M365.395,76.668h2.74v16.537h-2.74V76.668z"/>
				<path fill="#7A7A7A" d="M376.711,87.297v-0.043c0-3.424,2.719-6.258,6.388-6.258s6.365,2.787,6.365,6.209v0.049
					c0,3.393-2.72,6.229-6.41,6.229C379.401,93.482,376.711,90.695,376.711,87.297z M386.725,87.297v-0.043
					c0-2.111-1.521-3.854-3.671-3.854c-2.2,0-3.597,1.721-3.597,3.805v0.049c0,2.078,1.515,3.822,3.642,3.822
					C385.32,91.076,386.725,89.355,386.725,87.297z"/>
				<path fill="#7A7A7A" d="M397.245,87.297v-0.043c0-3.402,2.627-6.258,6.233-6.258c2.237,0,3.642,0.84,4.778,2.063l-1.722,1.836
					c-0.843-0.883-1.726-1.494-3.079-1.494c-1.995,0-3.469,1.721-3.469,3.805v0.049c0,2.127,1.474,3.822,3.582,3.822
					c1.291,0,2.24-0.59,3.104-1.469l1.652,1.629c-1.186,1.313-2.563,2.246-4.896,2.246
					C399.872,93.482,397.245,90.695,397.245,87.297z"/>
				<path fill="#7A7A7A" d="M415.697,89.764v-0.047c0-2.58,2.018-3.85,4.941-3.85c1.337,0,2.286,0.201,3.212,0.5v-0.299
					c0-1.695-1.043-2.6-2.963-2.6c-1.34,0-2.334,0.293-3.422,0.748l-0.725-2.156c1.32-0.584,2.606-0.969,4.502-0.969
					c1.795,0,3.129,0.473,3.971,1.334c0.887,0.857,1.291,2.127,1.291,3.689v7.09h-2.676v-1.494
					c-0.813,0.973-2.063,1.744-3.896,1.744C417.692,93.455,415.697,92.166,415.697,89.764z M423.902,88.904v-0.816
					c-0.706-0.271-1.636-0.477-2.72-0.477c-1.771,0-2.811,0.75-2.811,1.996v0.045c0,1.152,1.021,1.807,2.331,1.807
					C422.516,91.459,423.902,90.42,423.902,88.904z"/>
				<path fill="#7A7A7A" d="M435.6,76.668h2.74v16.537h-2.74V76.668z"/>
				<path fill="#7A7A7A" d="M447.403,90.082h3.01v3.123h-3.01V90.082z"/>
				<path fill="#7A7A7A" d="M472.096,77.352h2.789v13.316h8.336v2.537h-11.125V77.352z"/>
				<path fill="#7A7A7A" d="M490.573,87.275v-0.049c0-3.422,2.424-6.23,5.85-6.23c3.803,0,5.729,2.992,5.729,6.434
					c0,0.25-0.023,0.5-0.045,0.771h-8.789c0.291,1.945,1.678,3.035,3.445,3.035c1.334,0,2.287-0.5,3.232-1.426l1.615,1.426
					c-1.137,1.363-2.699,2.246-4.895,2.246C493.247,93.482,490.573,90.967,490.573,87.275z M499.43,86.389
					c-0.182-1.766-1.223-3.146-3.033-3.146c-1.678,0-2.85,1.291-3.102,3.146H499.43z"/>
				<path fill="#7A7A7A" d="M508.87,81.246h2.949l3.213,8.787l3.236-8.787h2.875l-4.889,12.053h-2.467L508.87,81.246z"/>
				<path fill="#7A7A7A" d="M527.795,87.275v-0.049c0-3.422,2.424-6.23,5.844-6.23c3.807,0,5.729,2.992,5.729,6.434
					c0,0.25-0.018,0.5-0.039,0.771h-8.793c0.291,1.945,1.678,3.035,3.449,3.035c1.334,0,2.279-0.5,3.238-1.426l1.605,1.426
					c-1.137,1.363-2.697,2.246-4.898,2.246C530.469,93.482,527.795,90.967,527.795,87.275z M536.653,86.389
					c-0.182-1.766-1.221-3.146-3.033-3.146c-1.678,0-2.854,1.291-3.102,3.146H536.653z"/>
				<path fill="#7A7A7A" d="M547.792,81.246h2.738v2.693c0.748-1.785,2.131-3.008,4.236-2.922v2.902h-0.16
					c-2.398,0-4.076,1.563-4.076,4.732v4.553h-2.738V81.246z"/>
				<path fill="#7A7A7A" d="M561.442,89.764v-0.047c0-2.58,2.023-3.85,4.938-3.85c1.336,0,2.291,0.201,3.219,0.5v-0.299
					c0-1.695-1.041-2.6-2.971-2.6c-1.33,0-2.33,0.293-3.414,0.748l-0.73-2.156c1.313-0.584,2.607-0.969,4.512-0.969
					c1.789,0,3.125,0.473,3.963,1.334c0.881,0.857,1.291,2.127,1.291,3.689v7.09h-2.67v-1.494c-0.818,0.973-2.063,1.744-3.898,1.744
					C563.43,93.455,561.442,92.166,561.442,89.764z M569.641,88.904v-0.816c-0.701-0.271-1.627-0.477-2.715-0.477
					c-1.764,0-2.807,0.75-2.807,1.996v0.045c0,1.152,1.014,1.807,2.334,1.807C568.266,91.459,569.641,90.42,569.641,88.904z"/>
				<path fill="#7A7A7A" d="M581.161,95.453l1.023-2.063c1.291,0.791,2.621,1.271,4.256,1.271c2.447,0,3.783-1.271,3.783-3.674
					v-0.926c-0.996,1.291-2.238,2.195-4.213,2.195c-2.807,0-5.439-2.082-5.439-5.6v-0.041c0-3.537,2.652-5.621,5.439-5.621
					c2.016,0,3.266,0.93,4.191,2.043v-1.793h2.736v9.512c0,2.021-0.52,3.516-1.518,4.51c-1.082,1.09-2.762,1.611-4.908,1.611
					C584.534,96.879,582.704,96.379,581.161,95.453z M590.243,86.637v-0.045c0-1.949-1.604-3.283-3.512-3.283
					c-1.9,0-3.395,1.314-3.395,3.283v0.045c0,1.951,1.521,3.287,3.395,3.287C588.639,89.924,590.243,88.588,590.243,86.637z"/>
				<path fill="#7A7A7A" d="M601.383,87.275v-0.049c0-3.422,2.422-6.23,5.84-6.23c3.813,0,5.732,2.992,5.732,6.434
					c0,0.25-0.02,0.5-0.045,0.771h-8.785c0.295,1.945,1.674,3.035,3.439,3.035c1.332,0,2.285-0.5,3.24-1.426l1.609,1.426
					c-1.131,1.363-2.689,2.246-4.896,2.246C604.053,93.482,601.383,90.967,601.383,87.275z M610.241,86.389
					c-0.188-1.766-1.227-3.146-3.039-3.146c-1.67,0-2.852,1.291-3.105,3.146H610.241z"/>
				<path fill="#7A7A7A" d="M633.807,95.453l1.016-2.063c1.293,0.791,2.627,1.271,4.266,1.271c2.447,0,3.781-1.271,3.781-3.674
					v-0.926c-1.002,1.291-2.248,2.195-4.219,2.195c-2.805,0-5.434-2.082-5.434-5.6v-0.041c0-3.537,2.648-5.621,5.434-5.621
					c2.02,0,3.264,0.93,4.195,2.043v-1.793h2.74v9.512c0,2.021-0.521,3.516-1.521,4.51c-1.086,1.09-2.76,1.611-4.916,1.611
					C637.18,96.879,635.344,96.379,633.807,95.453z M642.889,86.637v-0.045c0-1.949-1.605-3.283-3.51-3.283
					s-3.396,1.314-3.396,3.283v0.045c0,1.951,1.514,3.287,3.396,3.287C641.284,89.924,642.889,88.588,642.889,86.637z"/>
				<path fill="#7A7A7A" d="M654.836,76.668h2.738v16.537h-2.738V76.668z"/>
				<path fill="#7A7A7A" d="M666.159,87.297v-0.043c0-3.424,2.717-6.258,6.385-6.258c3.672,0,6.365,2.787,6.365,6.209v0.049
					c0,3.393-2.719,6.229-6.406,6.229C668.856,93.482,666.159,90.695,666.159,87.297z M676.17,87.297v-0.043
					c0-2.111-1.516-3.854-3.668-3.854c-2.197,0-3.605,1.721-3.605,3.805v0.049c0,2.078,1.523,3.822,3.646,3.822
					C674.768,91.076,676.17,89.355,676.17,87.297z"/>
				<path fill="#7A7A7A" d="M690.096,91.354v1.852h-2.746V76.668h2.746v6.574c0.881-1.244,2.123-2.246,4.072-2.246
					c2.813,0,5.551,2.221,5.551,6.209v0.049c0,3.961-2.717,6.201-5.551,6.201C692.178,93.455,690.928,92.461,690.096,91.354z
					 M696.934,87.254v-0.049c0-2.311-1.561-3.826-3.422-3.826c-1.855,0-3.488,1.539-3.488,3.826v0.049
					c0,2.285,1.633,3.822,3.488,3.822C695.397,91.076,696.934,89.607,696.934,87.254z"/>
				<path fill="#7A7A7A" d="M707.415,89.764v-0.047c0-2.58,2.014-3.85,4.936-3.85c1.34,0,2.285,0.201,3.215,0.5v-0.299
					c0-1.695-1.043-2.6-2.967-2.6c-1.334,0-2.33,0.293-3.418,0.748l-0.727-2.156c1.313-0.584,2.604-0.969,4.508-0.969
					c1.791,0,3.129,0.473,3.967,1.334c0.883,0.857,1.291,2.127,1.291,3.689v7.09h-2.674v-1.494
					c-0.813,0.973-2.063,1.744-3.898,1.744C709.411,93.455,707.415,92.166,707.415,89.764z M715.61,88.904v-0.816
					c-0.701-0.271-1.629-0.477-2.713-0.477c-1.771,0-2.811,0.75-2.811,1.996v0.045c0,1.152,1.02,1.807,2.33,1.807
					C714.231,91.459,715.61,90.42,715.61,88.904z"/>
				<path fill="#7A7A7A" d="M727.315,76.668h2.74v16.537h-2.74V76.668z"/>
				<path fill="#7A7A7A" d="M739.116,90.082h3.012v3.123h-3.012V90.082z"/>
			</g>
			<g id="XMLID_95_">
				<path fill="#1371D6" d="M249.672,7.102h21.629c4.277,0,7.469,0.183,9.571,0.536c2.104,0.36,3.992,1.104,5.646,2.235
					c1.66,1.132,3.046,2.64,4.157,4.522c1.105,1.879,1.655,3.989,1.655,6.327c0,2.535-0.683,4.861-2.047,6.974
					c-1.369,2.12-3.217,3.704-5.555,4.76c3.299,0.965,5.833,2.6,7.602,4.912c1.771,2.313,2.658,5.031,2.658,8.157
					c0,2.459-0.573,4.849-1.715,7.177c-1.147,2.321-2.708,4.183-4.686,5.571c-1.984,1.391-4.423,2.246-7.328,2.563
					c-1.822,0.198-6.21,0.321-13.174,0.369h-18.414V7.102z M260.589,16.108v12.511h7.163c4.257,0,6.902-0.057,7.936-0.181
					c1.874-0.22,3.34-0.866,4.409-1.938c1.066-1.068,1.606-2.48,1.606-4.224c0-1.679-0.46-3.03-1.383-4.079
					c-0.926-1.048-2.298-1.681-4.114-1.901c-1.083-0.126-4.197-0.188-9.339-0.188H260.589z M260.589,37.624v14.468h10.118
					c3.938,0,6.431-0.11,7.49-0.334c1.625-0.298,2.946-1.015,3.965-2.155c1.023-1.146,1.535-2.676,1.535-4.594
					c0-1.624-0.398-3.006-1.179-4.135c-0.792-1.13-1.927-1.959-3.416-2.475c-1.493-0.516-4.721-0.775-9.691-0.775H260.589z"/>
				<path fill="#1371D6" d="M326.836,48.734l10.334,1.732c-1.328,3.793-3.422,6.676-6.294,8.657
					c-2.863,1.979-6.454,2.969-10.756,2.969c-6.815,0-11.856-2.226-15.133-6.679c-2.583-3.566-3.875-8.066-3.875-13.508
					c0-6.497,1.7-11.577,5.093-15.26c3.396-3.68,7.69-5.516,12.883-5.516c5.829,0,10.432,1.925,13.807,5.775
					c3.367,3.85,4.979,9.749,4.833,17.698h-25.979c0.071,3.071,0.906,5.465,2.505,7.177c1.6,1.707,3.588,2.563,5.98,2.563
					c1.619,0,2.989-0.443,4.1-1.327C325.437,52.127,326.269,50.701,326.836,48.734z M327.424,38.254
					c-0.071-3-0.841-5.285-2.321-6.849c-1.477-1.563-3.273-2.343-5.388-2.343c-2.256,0-4.134,0.828-5.614,2.474
					c-1.473,1.649-2.198,3.89-2.18,6.718H327.424z"/>
				<path fill="#1371D6" d="M346.544,61.206V7.545h10.921v44.546h27.162v9.114H346.544z"/>
				<path fill="#1371D6" d="M389.944,41.057c0-3.444,0.846-6.775,2.549-10c1.689-3.224,4.1-5.682,7.214-7.382
					c3.11-1.697,6.579-2.545,10.426-2.545c5.927,0,10.784,1.925,14.573,5.775c3.791,3.85,5.688,8.712,5.688,14.596
					c0,5.929-1.916,10.847-5.74,14.744c-3.826,3.899-8.647,5.848-14.449,5.848c-3.592,0-7.021-0.813-10.281-2.434
					c-3.26-1.625-5.74-4.004-7.43-7.138C390.79,49.379,389.944,45.561,389.944,41.057z M400.568,41.613
					c0,3.885,0.929,6.865,2.771,8.928c1.846,2.066,4.122,3.105,6.83,3.105c2.703,0,4.975-1.039,6.808-3.105
					c1.831-2.063,2.749-5.069,2.749-9.004c0-3.835-0.918-6.788-2.749-8.857c-1.833-2.066-4.104-3.098-6.808-3.098
					c-2.708,0-4.984,1.032-6.83,3.098C401.497,34.748,400.568,37.722,400.568,41.613z"/>
				<path fill="#1371D6" d="M472.682,33.602l-10.219,1.842c-0.349-2.039-1.129-3.578-2.342-4.607
					c-1.219-1.037-2.802-1.551-4.748-1.551c-2.58,0-4.643,0.89-6.178,2.676c-1.537,1.781-2.309,4.766-2.309,8.948
					c0,4.651,0.779,7.931,2.344,9.854c1.562,1.917,3.662,2.881,6.289,2.881c1.971,0,3.584-0.563,4.84-1.685
					c1.25-1.12,2.141-3.04,2.655-5.775l10.187,1.736c-1.063,4.677-3.094,8.206-6.094,10.59c-2.998,2.389-7.016,3.58-12.062,3.58
					c-5.74,0-10.306-1.809-13.716-5.422c-3.406-3.619-5.105-8.624-5.105-15.021c0-6.472,1.71-11.509,5.125-15.114
					c3.42-3.605,8.047-5.405,13.875-5.405c4.775,0,8.57,1.026,11.384,3.084C469.432,26.265,471.452,29.393,472.682,33.602z"/>
				<path fill="#1371D6" d="M488.299,33.971l-9.418-1.697c1.061-3.787,2.881-6.594,5.467-8.416
					c2.584-1.819,6.418-2.729,11.512-2.729c4.625,0,8.072,0.547,10.332,1.646c2.258,1.091,3.861,2.482,4.781,4.164
					c0.924,1.689,1.387,4.784,1.387,9.281l-0.117,12.105c0,3.446,0.168,5.986,0.502,7.627c0.334,1.633,0.949,3.385,1.861,5.253
					H504.35c-0.273-0.687-0.604-1.709-1.002-3.063c-0.172-0.613-0.291-1.02-0.365-1.217c-1.771,1.725-3.666,3.016-5.686,3.875
					c-2.014,0.864-4.168,1.291-6.459,1.291c-4.033,0-7.209-1.094-9.537-3.281c-2.328-2.191-3.484-4.956-3.484-8.306
					c0-2.214,0.525-4.188,1.584-5.923c1.057-1.733,2.543-3.063,4.445-3.984c1.912-0.922,4.66-1.729,8.254-2.417
					c4.844-0.91,8.199-1.758,10.07-2.548v-1.037c0-1.988-0.492-3.411-1.477-4.259c-0.979-0.848-2.848-1.274-5.572-1.274
					c-1.846,0-3.283,0.363-4.314,1.086C489.772,30.879,488.934,32.15,488.299,33.971z M502.17,42.389
					c-1.328,0.442-3.436,0.969-6.311,1.585c-2.877,0.612-4.76,1.217-5.646,1.807c-1.354,0.962-2.031,2.183-2.031,3.656
					c0,1.452,0.541,2.708,1.627,3.765c1.084,1.059,2.455,1.584,4.133,1.584c1.865,0,3.654-0.617,5.35-1.846
					c1.256-0.93,2.08-2.077,2.473-3.432c0.271-0.883,0.406-2.572,0.406-5.054V42.389z"/>
				<path fill="#1371D6" d="M522.579,61.206V7.102h10.373v54.104H522.579z"/>
				<path fill="#50BF41" d="M569.299,39.987v-6.35l22.916-0.036v20.08c-3.516,2.801-7.148,4.911-10.887,6.327
					c-3.744,1.413-7.574,2.12-11.512,2.12c-5.313,0-10.146-1.137-14.488-3.411c-4.342-2.276-7.615-5.569-9.834-9.877
					c-2.207-4.301-3.326-9.113-3.326-14.426c0-5.266,1.105-10.18,3.311-14.744c2.201-4.563,5.369-7.955,9.502-10.167
					c4.133-2.214,8.891-3.322,14.283-3.322c3.908,0,7.449,0.634,10.604,1.899c3.17,1.271,5.646,3.03,7.438,5.299
					c1.803,2.267,3.166,5.212,4.1,8.86l-6.457,1.768c-0.813-2.753-1.82-4.921-3.027-6.493c-1.211-1.581-2.926-2.84-5.164-3.787
					c-2.244-0.942-4.725-1.417-7.457-1.417c-3.275,0-6.098,0.493-8.488,1.489c-2.383,0.999-4.307,2.307-5.773,3.932
					c-1.467,1.626-2.607,3.412-3.414,5.356c-1.381,3.343-2.068,6.971-2.068,10.882c0,4.826,0.83,8.86,2.49,12.104
					c1.664,3.25,4.076,5.661,7.25,7.237c3.176,1.572,6.545,2.356,10.113,2.356c3.102,0,6.127-0.592,9.086-1.785
					c2.947-1.194,5.188-2.468,6.713-3.822V39.987H569.299z"/>
				<path fill="#50BF41" d="M601.846,61.206V22.014h5.98v5.944c1.531-2.782,2.938-4.617,4.229-5.5
					c1.291-0.884,2.713-1.328,4.258-1.328c2.244,0,4.516,0.713,6.834,2.141l-2.289,6.161c-1.625-0.958-3.25-1.438-4.873-1.438
					c-1.449,0-2.752,0.438-3.91,1.313c-1.16,0.869-1.979,2.083-2.477,3.628c-0.734,2.367-1.104,4.948-1.104,7.754v20.517H601.846z"
					/>
				<path fill="#50BF41" d="M624.618,41.613c0-7.26,2.02-12.633,6.051-16.128c3.375-2.902,7.48-4.354,12.33-4.354
					c5.389,0,9.791,1.765,13.211,5.295s5.129,8.407,5.129,14.631c0,5.045-0.752,9.011-2.268,11.904
					c-1.516,2.89-3.717,5.136-6.607,6.736c-2.889,1.599-6.045,2.395-9.465,2.395c-5.484,0-9.92-1.756-13.311-5.275
					C626.317,53.301,624.618,48.227,624.618,41.613z M631.452,41.613c0,5.017,1.092,8.775,3.281,11.27
					c2.188,2.502,4.947,3.752,8.266,3.752c3.297,0,6.039-1.258,8.234-3.766c2.189-2.51,3.279-6.335,3.279-11.479
					c0-4.843-1.104-8.517-3.299-11.018c-2.205-2.494-4.941-3.745-8.215-3.745c-3.318,0-6.078,1.247-8.266,3.73
					C632.543,32.843,631.452,36.59,631.452,41.613z"/>
				<path fill="#50BF41" d="M694.813,61.206v-5.754c-3.049,4.427-7.197,6.64-12.436,6.64c-2.316,0-4.475-0.442-6.479-1.328
					c-2.004-0.885-3.488-2.001-4.469-3.338c-0.971-1.339-1.652-2.984-2.043-4.926c-0.27-1.304-0.408-3.371-0.408-6.198V22.014h6.645
					v21.74c0,3.468,0.135,5.807,0.408,7.01c0.414,1.75,1.297,3.12,2.654,4.114c1.346,0.993,3.023,1.494,5.02,1.494
					c1.99,0,3.857-0.509,5.611-1.53c1.744-1.021,2.979-2.41,3.707-4.17c0.725-1.756,1.088-4.313,1.088-7.656V22.014h6.641v39.192
					H694.813z"/>
				<path fill="#50BF41" d="M711.155,76.229V22.014h6.059v5.093c1.424-1.995,3.037-3.488,4.836-4.483
					c1.795-0.994,3.975-1.494,6.537-1.494c3.342,0,6.289,0.863,8.854,2.583c2.557,1.723,4.486,4.15,5.789,7.291
					c1.305,3.134,1.959,6.573,1.959,10.312c0,4.009-0.719,7.621-2.156,10.833c-1.443,3.208-3.537,5.674-6.275,7.382
					c-2.742,1.706-5.631,2.562-8.654,2.562c-2.215,0-4.203-0.469-5.961-1.4c-1.764-0.931-3.201-2.115-4.336-3.543v19.08H711.155z
					 M717.178,41.834c0,5.045,1.021,8.77,3.063,11.181c2.043,2.411,4.51,3.62,7.418,3.62c2.951,0,5.477-1.25,7.582-3.752
					c2.102-2.495,3.156-6.363,3.156-11.604c0-4.995-1.025-8.732-3.086-11.219c-2.049-2.482-4.51-3.727-7.361-3.727
					c-2.824,0-5.332,1.321-7.512,3.968C718.262,32.948,717.178,36.792,717.178,41.834z"/>
			</g>
		</g>
	</g>
	<g id="XMLID_1_">
		<linearGradient id="SVGID_1_" gradientUnits="userSpaceOnUse" x1="212.1191" y1="47.3149" x2="233.5263" y2="51.5361">
			<stop  offset="0" style="stop-color:#68A9DE"/>
			<stop  offset="1" style="stop-color:#B7D048"/>
		</linearGradient>
		<rect x="221.448" fill="url(#SVGID_1_)" width="2.748" height="98.852"/>
	</g>
</g>
</svg>
