<?xml version="1.0" encoding="utf-8"?>
<!-- Generator: Adobe Illustrator 19.0.0, SVG Export Plug-In . SVG Version: 6.00 Build 0)  -->
<svg version="1.1" id="Layer_1" xmlns="http://www.w3.org/2000/svg" xmlns:xlink="http://www.w3.org/1999/xlink" x="0px" y="0px"
	 viewBox="0 0 442.9 209.9" style="enable-background:new 0 0 442.9 209.9;" xml:space="preserve">
<style type="text/css">
	.st0{fill:url(#XMLID_21_);}
	.st1{fill:url(#XMLID_22_);}
	.st2{fill:url(#XMLID_23_);}
	.st3{fill:url(#XMLID_24_);}
	.st4{fill:url(#XMLID_25_);}
</style>
<g id="XMLID_6_">
	<linearGradient id="XMLID_21_" gradientUnits="userSpaceOnUse" x1="34.095" y1="155.4411" x2="434.4293" y2="147.1868">
		<stop  offset="0" style="stop-color:#1371D6"/>
		<stop  offset="0.9949" style="stop-color:#50BF41"/>
	</linearGradient>
	<path id="XMLID_11_" class="st0" d="M433.2,95c-93.8-10.8-186.9,2.3-275.5,31.1c-49-11.8-99-17.7-148-14.6
		c-13,0.8-13.1,21.1,0,20.3c36.7-2.3,74.1,0.7,111.2,7.4c-27.8,10.5-55,22.4-81.7,35.6c-11.7,5.8-1.4,23.3,10.2,17.5
		c35.3-17.5,71.8-32.7,109-45c9.6,2.4,19.2,4.9,28.7,7.8c-32,7.5-63.3,19.2-93.8,36c-11.4,6.3-1.2,23.8,10.3,17.5
		c39.8-22,81.3-34.7,123.6-40.3c30.4,11,59.9,23.8,87.8,37.6c11.7,5.8,22-11.7,10.2-17.5c-16.6-8.2-33.8-16.1-51.3-23.5
		c43.7-0.6,88,5.4,132.1,16c12.7,3.1,18.1-16.5,5.4-19.6c-60.9-14.7-122.2-20.8-181.9-13.7c-11.4-4.1-23-7.9-34.7-11.4
		c77.2-21.4,157.4-30.2,238.4-20.8C446.2,116.8,446.1,96.5,433.2,95z"/>
	<linearGradient id="XMLID_22_" gradientUnits="userSpaceOnUse" x1="31.5476" y1="32.1268" x2="431.8815" y2="23.8725">
		<stop  offset="0" style="stop-color:#1371D6"/>
		<stop  offset="0.9949" style="stop-color:#50BF41"/>
	</linearGradient>
	<path id="XMLID_10_" class="st1" d="M164.3,58.8c16.2,0,29.4-13.2,29.4-29.4c0-16.2-13.2-29.4-29.4-29.4
		c-16.2,0-29.4,13.2-29.4,29.4C134.9,45.6,148.1,58.8,164.3,58.8z"/>
	<linearGradient id="XMLID_23_" gradientUnits="userSpaceOnUse" x1="31.8998" y1="47.0287" x2="432.1779" y2="38.7756">
		<stop  offset="0" style="stop-color:#1371D6"/>
		<stop  offset="0.9949" style="stop-color:#50BF41"/>
	</linearGradient>
	<path id="XMLID_9_" class="st2" d="M320.2,70.5c16.2,0,29.4-13.2,29.4-29.4c0-16.2-13.2-29.4-29.4-29.4
		c-16.2,0-29.4,13.2-29.4,29.4C290.8,57.3,304,70.5,320.2,70.5z"/>
	<linearGradient id="XMLID_24_" gradientUnits="userSpaceOnUse" x1="32.1898" y1="63.1112" x2="432.5186" y2="54.857">
		<stop  offset="0" style="stop-color:#1371D6"/>
		<stop  offset="0.9949" style="stop-color:#50BF41"/>
	</linearGradient>
	<path id="XMLID_8_" class="st3" d="M242.3,88.2c16.2,0,29.4-13.2,29.4-29.4c0-16.2-13.2-29.4-29.4-29.4
		c-16.2,0-29.4,13.2-29.4,29.4C212.9,75,226,88.2,242.3,88.2z"/>
	<linearGradient id="XMLID_25_" gradientUnits="userSpaceOnUse" x1="32.3585" y1="71.5954" x2="432.7381" y2="63.3401">
		<stop  offset="0" style="stop-color:#1371D6"/>
		<stop  offset="0.9949" style="stop-color:#50BF41"/>
	</linearGradient>
	<path id="XMLID_7_" class="st4" d="M86.4,99.9c16.2,0,29.4-13.2,29.4-29.4c0-16.2-13.2-29.4-29.4-29.4C70.2,41.1,57,54.2,57,70.5
		C57,86.7,70.2,99.9,86.4,99.9z"/>
</g>
</svg>
