<?xml version="1.0" encoding="utf-8"?>
<!-- Generator: Adobe Illustrator 19.0.0, SVG Export Plug-In . SVG Version: 6.00 Build 0)  -->
<svg version="1.1" id="Layer_1" xmlns="http://www.w3.org/2000/svg" xmlns:xlink="http://www.w3.org/1999/xlink" x="0px" y="0px"
	 viewBox="0 0 298.1 33.4" style="enable-background:new 0 0 298.1 33.4;" xml:space="preserve">
<style type="text/css">
	.st0{fill:url(#XMLID_24_);}
	.st1{fill:url(#XMLID_25_);}
	.st2{fill:url(#XMLID_26_);}
	.st3{fill:url(#XMLID_27_);}
	.st4{fill:url(#XMLID_28_);}
	.st5{fill:#3770B7;}
	.st6{fill:#59BA47;}
	.st7{fill:url(#XMLID_29_);}
</style>
<g id="XMLID_6_">
	<linearGradient id="XMLID_24_" gradientUnits="userSpaceOnUse" x1="4.5663" y1="20.8181" x2="58.1828" y2="19.7126">
		<stop  offset="0" style="stop-color:#3770B7"/>
		<stop  offset="0.9949" style="stop-color:#59BA47"/>
	</linearGradient>
	<path id="XMLID_11_" class="st0" d="M58,12.7c-12.6-1.5-25,0.3-36.9,4.2c-6.6-1.6-13.3-2.4-19.8-2c-1.7,0.1-1.8,2.8,0,2.7
		c4.9-0.3,9.9,0.1,14.9,1c-3.7,1.4-7.4,3-10.9,4.8c-1.6,0.8-0.2,3.1,1.4,2.3c4.7-2.3,9.6-4.4,14.6-6c1.3,0.3,2.6,0.7,3.8,1
		c-4.3,1-8.5,2.6-12.6,4.8c-1.5,0.8-0.2,3.2,1.4,2.3c5.3-2.9,10.9-4.6,16.6-5.4c4.1,1.5,8,3.2,11.8,5c1.6,0.8,2.9-1.6,1.4-2.3
		c-2.2-1.1-4.5-2.2-6.9-3.1c5.8-0.1,11.8,0.7,17.7,2.1c1.7,0.4,2.4-2.2,0.7-2.6c-8.2-2-16.4-2.8-24.4-1.8c-1.5-0.5-3.1-1.1-4.6-1.5
		c10.3-2.9,21.1-4,31.9-2.8C59.8,15.6,59.7,12.9,58,12.7z"/>
	<linearGradient id="XMLID_25_" gradientUnits="userSpaceOnUse" x1="4.2251" y1="4.3027" x2="57.8416" y2="3.1972">
		<stop  offset="0" style="stop-color:#3770B7"/>
		<stop  offset="0.9949" style="stop-color:#59BA47"/>
	</linearGradient>
	<circle id="XMLID_10_" class="st1" cx="22" cy="3.9" r="3.9"/>
	<linearGradient id="XMLID_26_" gradientUnits="userSpaceOnUse" x1="4.2723" y1="6.2985" x2="57.8813" y2="5.1932">
		<stop  offset="0" style="stop-color:#3770B7"/>
		<stop  offset="0.9949" style="stop-color:#59BA47"/>
	</linearGradient>
	<circle id="XMLID_9_" class="st2" cx="42.9" cy="5.5" r="3.9"/>
	<linearGradient id="XMLID_27_" gradientUnits="userSpaceOnUse" x1="4.3112" y1="8.4524" x2="57.9269" y2="7.347">
		<stop  offset="0" style="stop-color:#3770B7"/>
		<stop  offset="0.9949" style="stop-color:#59BA47"/>
	</linearGradient>
	<circle id="XMLID_8_" class="st3" cx="32.4" cy="7.9" r="3.9"/>
	<linearGradient id="XMLID_28_" gradientUnits="userSpaceOnUse" x1="4.3337" y1="9.5887" x2="57.9563" y2="8.4831">
		<stop  offset="0" style="stop-color:#3770B7"/>
		<stop  offset="0.9949" style="stop-color:#59BA47"/>
	</linearGradient>
	<circle id="XMLID_7_" class="st4" cx="11.6" cy="9.4" r="3.9"/>
</g>
<g id="XMLID_4_">
	<path id="XMLID_125_" class="st5" d="M75.3,2.3H85c1.9,0,3.4,0.1,4.3,0.2c0.9,0.2,1.8,0.5,2.5,1c0.7,0.5,1.4,1.2,1.9,2
		c0.5,0.8,0.7,1.8,0.7,2.8c0,1.1-0.3,2.2-0.9,3.1c-0.6,1-1.4,1.7-2.5,2.1c1.5,0.4,2.6,1.2,3.4,2.2c0.8,1,1.2,2.3,1.2,3.7
		c0,1.1-0.3,2.2-0.8,3.2c-0.5,1-1.2,1.9-2.1,2.5c-0.9,0.6-2,1-3.3,1.2c-0.8,0.1-2.8,0.1-5.9,0.2h-8.3V2.3z M80.2,6.3V12h3.2
		c1.9,0,3.1,0,3.6-0.1c0.8-0.1,1.5-0.4,2-0.9c0.5-0.5,0.7-1.1,0.7-1.9c0-0.8-0.2-1.4-0.6-1.8c-0.4-0.5-1-0.8-1.9-0.9
		c-0.5-0.1-1.9-0.1-4.2-0.1H80.2z M80.2,16v6.5h4.5c1.8,0,2.9-0.1,3.4-0.1c0.7-0.1,1.3-0.5,1.8-1c0.5-0.5,0.7-1.2,0.7-2.1
		c0-0.7-0.2-1.4-0.5-1.9c-0.4-0.5-0.9-0.9-1.5-1.1c-0.7-0.2-2.1-0.3-4.4-0.3H80.2z"/>
	<path id="XMLID_122_" class="st5" d="M110,21l4.6,0.8c-0.6,1.7-1.5,3-2.8,3.9c-1.3,0.9-2.9,1.3-4.8,1.3c-3.1,0-5.3-1-6.8-3
		c-1.2-1.6-1.7-3.6-1.7-6.1c0-2.9,0.8-5.2,2.3-6.9c1.5-1.7,3.5-2.5,5.8-2.5c2.6,0,4.7,0.9,6.2,2.6c1.5,1.7,2.2,4.4,2.2,8h-11.7
		c0,1.4,0.4,2.5,1.1,3.2c0.7,0.8,1.6,1.2,2.7,1.2c0.7,0,1.3-0.2,1.8-0.6C109.4,22.5,109.7,21.9,110,21z M110.3,16.3
		c0-1.3-0.4-2.4-1-3.1c-0.7-0.7-1.5-1.1-2.4-1.1c-1,0-1.9,0.4-2.5,1.1c-0.7,0.7-1,1.7-1,3H110.3z"/>
	<path id="XMLID_120_" class="st5" d="M118.9,26.6V2.5h4.9v20H136v4.1H118.9z"/>
	<path id="XMLID_117_" class="st5" d="M138.4,17.5c0-1.5,0.4-3,1.1-4.5c0.8-1.4,1.8-2.6,3.2-3.3c1.4-0.8,3-1.1,4.7-1.1
		c2.7,0,4.9,0.9,6.6,2.6c1.7,1.7,2.6,3.9,2.6,6.6c0,2.7-0.9,4.9-2.6,6.6c-1.7,1.8-3.9,2.6-6.5,2.6c-1.6,0-3.2-0.4-4.6-1.1
		c-1.5-0.7-2.6-1.8-3.3-3.2C138.8,21.3,138.4,19.6,138.4,17.5z M143.1,17.8c0,1.7,0.4,3.1,1.2,4c0.8,0.9,1.9,1.4,3.1,1.4
		c1.2,0,2.2-0.5,3.1-1.4c0.8-0.9,1.2-2.3,1.2-4c0-1.7-0.4-3.1-1.2-4c-0.8-0.9-1.8-1.4-3.1-1.4c-1.2,0-2.2,0.5-3.1,1.4
		C143.6,14.7,143.1,16,143.1,17.8z"/>
	<path id="XMLID_115_" class="st5" d="M175.6,14.2L171,15c-0.2-0.9-0.5-1.6-1.1-2.1c-0.5-0.5-1.3-0.7-2.1-0.7
		c-1.2,0-2.1,0.4-2.8,1.2c-0.7,0.8-1,2.1-1,4c0,2.1,0.3,3.6,1,4.4c0.7,0.9,1.6,1.3,2.8,1.3c0.9,0,1.6-0.3,2.2-0.8
		c0.6-0.5,1-1.4,1.2-2.6l4.6,0.8c-0.5,2.1-1.4,3.7-2.7,4.8c-1.3,1.1-3.2,1.6-5.4,1.6c-2.6,0-4.6-0.8-6.2-2.4
		c-1.5-1.6-2.3-3.9-2.3-6.8c0-2.9,0.8-5.2,2.3-6.8c1.5-1.6,3.6-2.4,6.2-2.4c2.1,0,3.9,0.5,5.1,1.4C174.1,10.9,175,12.3,175.6,14.2z"
		/>
	<path id="XMLID_112_" class="st5" d="M182.6,14.4l-4.2-0.8c0.5-1.7,1.3-3,2.5-3.8c1.2-0.8,2.9-1.2,5.2-1.2c2.1,0,3.6,0.2,4.6,0.7
		c1,0.5,1.7,1.1,2.2,1.9c0.4,0.8,0.6,2.1,0.6,4.2l-0.1,5.4c0,1.5,0.1,2.7,0.2,3.4c0.1,0.7,0.4,1.5,0.8,2.4h-4.6
		c-0.1-0.3-0.3-0.8-0.4-1.4c-0.1-0.3-0.1-0.5-0.2-0.5c-0.8,0.8-1.7,1.4-2.6,1.7c-0.9,0.4-1.9,0.6-2.9,0.6c-1.8,0-3.2-0.5-4.3-1.5
		c-1-1-1.6-2.2-1.6-3.7c0-1,0.2-1.9,0.7-2.7c0.5-0.8,1.1-1.4,2-1.8c0.9-0.4,2.1-0.8,3.7-1.1c2.2-0.4,3.7-0.8,4.5-1.1v-0.5
		c0-0.9-0.2-1.5-0.7-1.9c-0.4-0.4-1.3-0.6-2.5-0.6c-0.8,0-1.5,0.2-1.9,0.5C183.3,13,182.9,13.5,182.6,14.4z M188.8,18.1
		c-0.6,0.2-1.5,0.4-2.8,0.7c-1.3,0.3-2.1,0.5-2.5,0.8c-0.6,0.4-0.9,1-0.9,1.6c0,0.7,0.2,1.2,0.7,1.7c0.5,0.5,1.1,0.7,1.9,0.7
		c0.8,0,1.6-0.3,2.4-0.8c0.6-0.4,0.9-0.9,1.1-1.5c0.1-0.4,0.2-1.2,0.2-2.3V18.1z"/>
	<path id="XMLID_110_" class="st5" d="M198,26.6V2.3h4.7v24.3H198z"/>
	<path id="XMLID_108_" class="st6" d="M219,17.1v-2.9l10.3,0v9c-1.6,1.3-3.2,2.2-4.9,2.8c-1.7,0.6-3.4,1-5.2,1
		c-2.4,0-4.6-0.5-6.5-1.5c-2-1-3.4-2.5-4.4-4.4c-1-1.9-1.5-4.1-1.5-6.5c0-2.4,0.5-4.6,1.5-6.6c1-2.1,2.4-3.6,4.3-4.6
		c1.9-1,4-1.5,6.4-1.5c1.8,0,3.3,0.3,4.8,0.9c1.4,0.6,2.5,1.4,3.3,2.4c0.8,1,1.4,2.3,1.8,4L226,9.9c-0.4-1.2-0.8-2.2-1.4-2.9
		c-0.5-0.7-1.3-1.3-2.3-1.7c-1-0.4-2.1-0.6-3.4-0.6c-1.5,0-2.7,0.2-3.8,0.7c-1.1,0.4-1.9,1-2.6,1.8c-0.7,0.7-1.2,1.5-1.5,2.4
		c-0.6,1.5-0.9,3.1-0.9,4.9c0,2.2,0.4,4,1.1,5.4c0.7,1.5,1.8,2.5,3.3,3.3c1.4,0.7,2.9,1.1,4.5,1.1c1.4,0,2.8-0.3,4.1-0.8
		c1.3-0.5,2.3-1.1,3-1.7v-4.5H219z"/>
	<path id="XMLID_106_" class="st6" d="M233.6,26.6V9h2.7v2.7c0.7-1.3,1.3-2.1,1.9-2.5c0.6-0.4,1.2-0.6,1.9-0.6c1,0,2,0.3,3.1,1
		l-1,2.8c-0.7-0.4-1.5-0.6-2.2-0.6c-0.7,0-1.2,0.2-1.8,0.6c-0.5,0.4-0.9,0.9-1.1,1.6c-0.3,1.1-0.5,2.2-0.5,3.5v9.2H233.6z"/>
	<path id="XMLID_103_" class="st6" d="M243.9,17.8c0-3.3,0.9-5.7,2.7-7.3c1.5-1.3,3.4-2,5.5-2c2.4,0,4.4,0.8,5.9,2.4
		c1.5,1.6,2.3,3.8,2.3,6.6c0,2.3-0.3,4.1-1,5.4c-0.7,1.3-1.7,2.3-3,3c-1.3,0.7-2.7,1.1-4.3,1.1c-2.5,0-4.5-0.8-6-2.4
		C244.6,23,243.9,20.8,243.9,17.8z M247,17.8c0,2.3,0.5,3.9,1.5,5.1c1,1.1,2.2,1.7,3.7,1.7c1.5,0,2.7-0.6,3.7-1.7
		c1-1.1,1.5-2.8,1.5-5.2c0-2.2-0.5-3.8-1.5-5c-1-1.1-2.2-1.7-3.7-1.7c-1.5,0-2.7,0.6-3.7,1.7C247.4,13.9,247,15.5,247,17.8z"/>
	<path id="XMLID_101_" class="st6" d="M275.4,26.6V24c-1.4,2-3.2,3-5.6,3c-1,0-2-0.2-2.9-0.6c-0.9-0.4-1.6-0.9-2-1.5
		c-0.4-0.6-0.7-1.3-0.9-2.2c-0.1-0.6-0.2-1.5-0.2-2.8V9h3v9.8c0,1.6,0.1,2.6,0.2,3.2c0.2,0.8,0.6,1.4,1.2,1.9
		c0.6,0.4,1.4,0.7,2.3,0.7c0.9,0,1.7-0.2,2.5-0.7c0.8-0.5,1.3-1.1,1.7-1.9c0.3-0.8,0.5-1.9,0.5-3.4V9h3v17.6H275.4z"/>
	<path id="XMLID_98_" class="st6" d="M282.8,33.4V9h2.7v2.3c0.6-0.9,1.4-1.6,2.2-2c0.8-0.4,1.8-0.7,2.9-0.7c1.5,0,2.8,0.4,4,1.2
		c1.1,0.8,2,1.9,2.6,3.3c0.6,1.4,0.9,3,0.9,4.6c0,1.8-0.3,3.4-1,4.9c-0.6,1.4-1.6,2.6-2.8,3.3c-1.2,0.8-2.5,1.2-3.9,1.2
		c-1,0-1.9-0.2-2.7-0.6c-0.8-0.4-1.4-1-1.9-1.6v8.6H282.8z M285.5,17.9c0,2.3,0.5,3.9,1.4,5c0.9,1.1,2,1.6,3.3,1.6
		c1.3,0,2.5-0.6,3.4-1.7c0.9-1.1,1.4-2.9,1.4-5.2c0-2.2-0.5-3.9-1.4-5c-0.9-1.1-2-1.7-3.3-1.7c-1.3,0-2.4,0.6-3.4,1.8
		C286,13.9,285.5,15.6,285.5,17.9z"/>
</g>
<g id="XMLID_2_">
	<linearGradient id="XMLID_29_" gradientUnits="userSpaceOnUse" x1="63.9771" y1="14.271" x2="70.4352" y2="15.5444">
		<stop  offset="0" style="stop-color:#6AA8DB"/>
		<stop  offset="1" style="stop-color:#B7CF47"/>
	</linearGradient>
	<rect id="XMLID_96_" x="66.8" y="0" class="st7" width="0.8" height="29.8"/>
</g>
</svg>
